<?xml version="1.0" encoding="UTF-8"?>
<svg id="Layer_1" data-name="Layer 1" xmlns="http://www.w3.org/2000/svg" viewBox="0 0 170.08 170.08">
  <defs>
    <style>
      .cls-1 {
        font-size: 14px;
      }

      .cls-1, .cls-2, .cls-3 {
        font-family: Arial-BoldMT, Arial;
        font-weight: 700;
      }

      .cls-2 {
        font-size: 15.4px;
      }

      .cls-2, .cls-3 {
        fill: #010101;
      }

      .cls-3 {
        font-size: 19.8px;
      }

      .cls-4 {
        fill: #facfdb;
      }

      .cls-4, .cls-5, .cls-6 {
        fill-rule: evenodd;
      }

      .cls-5 {
        fill: #61a544;
      }

      .cls-6 {
        fill: #462f81;
      }
    </style>
  </defs>
  <text class="cls-1" transform="translate(19.66 71.75) rotate(-72.41)"><tspan x="0" y="0">w</tspan></text>
  <text class="cls-1" transform="translate(23.21 60.76) rotate(-62.23)"><tspan x="0" y="0">w</tspan></text>
  <text class="cls-1" transform="translate(28.64 50.58) rotate(-52.14)"><tspan x="0" y="0">w</tspan></text>
  <text class="cls-1" transform="translate(35.69 41.87) rotate(-45.43)"><tspan x="0" y="0">.</tspan></text>
  <text class="cls-1" transform="translate(39 38.43) rotate(-39.57)"><tspan x="0" y="0">c</tspan></text>
  <text class="cls-1" transform="translate(45.63 33.02) rotate(-32.1)"><tspan x="0" y="0">e</tspan></text>
  <text class="cls-1" transform="translate(52.99 28.53) rotate(-25.55)"><tspan x="0" y="0">r</tspan></text>
  <text class="cls-1" transform="translate(58.66 25.8) rotate(-18.96)"><tspan x="0" y="0">a</tspan></text>
  <text class="cls-1" transform="translate(66.64 22.92) rotate(-9.43)"><tspan x="0" y="0">m</tspan></text>
  <text class="cls-1" transform="translate(79.73 21.09) rotate(-1.63)"><tspan x="0" y="0">i</tspan></text>
  <text class="cls-1" transform="translate(84.5 20.9) rotate(4.15)"><tspan x="0" y="0">c</tspan></text>
  <text class="cls-1" transform="translate(93.07 21.58) rotate(11.68)"><tspan x="0" y="0">s</tspan></text>
  <text class="cls-1" transform="translate(101.48 23.45) rotate(17.92)"><tspan x="0" y="0">-</tspan></text>
  <text class="cls-1" transform="translate(106.77 25.12) rotate(24.2)"><tspan x="0" y="0">e</tspan></text>
  <text class="cls-1" transform="translate(114.58 28.77) rotate(30.42)"><tspan x="0" y="0">t</tspan></text>
  <text class="cls-1" transform="translate(119.37 31.54) rotate(36.62)"><tspan x="0" y="0">c</tspan></text>
  <text class="cls-1" transform="translate(126.24 36.83) rotate(42.48)"><tspan x="0" y="0">.</tspan></text>
  <text class="cls-1" transform="translate(129.8 40.01) rotate(48.33)"><tspan x="0" y="0">c</tspan></text>
  <text class="cls-1" transform="translate(135.47 46.43) rotate(56.13)"><tspan x="0" y="0">o</tspan></text>
  <text class="cls-1" transform="translate(140.57 54.33) rotate(62.33)"><tspan x="0" y="0">.</tspan></text>
  <text class="cls-1" transform="translate(142.84 58.49) rotate(68.57)"><tspan x="0" y="0">u</tspan></text>
  <text class="cls-1" transform="translate(146.18 67.21) rotate(76.49)"><tspan x="0" y="0">k</tspan></text>
  <text class="cls-2" transform="translate(4.73 68.49) rotate(100.59) scale(1.02 1)"><tspan x="0" y="0"> </tspan></text>
  <text class="cls-2" transform="translate(3.9 72.98) rotate(97.22) scale(1.02 1)"><tspan x="0" y="0"> </tspan></text>
  <text class="cls-2" transform="translate(3.33 77.53) rotate(93.87) scale(1.02 1)"><tspan x="0" y="0"> </tspan></text>
  <text class="cls-2" transform="translate(3.04 82.07) rotate(90.94) scale(1.02 1)"><tspan x="0" y="0"> </tspan></text>
  <text class="cls-2" transform="translate(2.99 86.66) rotate(87.26) scale(1.02 1)"><tspan x="0" y="0"> </tspan></text>
  <text class="cls-2" transform="translate(3.21 91.23) rotate(83.92) scale(1.02 1)"><tspan x="0" y="0"> </tspan></text>
  <text class="cls-2" transform="translate(3.7 95.78) rotate(80.55) scale(1.02 1)"><tspan x="0" y="0"> </tspan></text>
  <text class="cls-2" transform="translate(4.46 100.29) rotate(77.18) scale(1.02 1)"><tspan x="0" y="0"> </tspan></text>
  <text class="cls-2" transform="translate(5.49 104.77) rotate(73.79) scale(1.02 1)"><tspan x="0" y="0"> </tspan></text>
  <text class="cls-2" transform="translate(6.77 109.15) rotate(70.41) scale(1.02 1)"><tspan x="0" y="0"> </tspan></text>
  <text class="cls-2" transform="translate(8.31 113.46) rotate(67.05) scale(1.02 1)"><tspan x="0" y="0"> </tspan></text>
  <text class="cls-2" transform="translate(10.1 117.68) rotate(63.69) scale(1.02 1)"><tspan x="0" y="0"> </tspan></text>
  <text class="cls-2" transform="translate(12.14 121.77) rotate(60.35) scale(1.02 1)"><tspan x="0" y="0"> </tspan></text>
  <text class="cls-2" transform="translate(14.41 125.76) rotate(57.02) scale(1.02 1)"><tspan x="0" y="0"> </tspan></text>
  <text class="cls-2" transform="translate(16.9 129.58) rotate(53.73) scale(1.02 1)"><tspan x="0" y="0"> </tspan></text>
  <text class="cls-3" transform="translate(20.76 132.55) rotate(46.6) scale(1.02 1)"><tspan x="0" y="0">C</tspan></text>
  <text class="cls-3" transform="translate(32.33 144.29) rotate(35.88) scale(1.02 1)"><tspan x="0" y="0">e</tspan></text>
  <text class="cls-3" transform="translate(43.04 151.72) rotate(27.67) scale(1.02 1)"><tspan x="0" y="0">r</tspan></text>
  <text class="cls-3" transform="translate(51.65 156.22) rotate(19.44) scale(1.02 1)"><tspan x="0" y="0">a</tspan></text>
  <text class="cls-3" transform="translate(64.1 160.75) rotate(7.55) scale(1.02 1)"><tspan x="0" y="0">m</tspan></text>
  <text class="cls-3" transform="translate(83.78 162.67) rotate(-2.05) scale(1.02 1)"><tspan x="0" y="0">i</tspan></text>
  <text class="cls-3" transform="translate(91.22 162.47) rotate(-9.3) scale(1.02 1)"><tspan x="0" y="0">c</tspan></text>
  <text class="cls-3" transform="translate(104.11 160.2) rotate(-18.72) scale(1.02 1)"><tspan x="0" y="0">s</tspan></text>
  <text class="cls-3" transform="translate(116.33 155.75) rotate(-26.1) scale(1.02 1)"><tspan x="0" y="0"> </tspan></text>
  <text class="cls-3" transform="translate(123.11 152.59) rotate(-34.32) scale(1.02 1)"><tspan x="0" y="0">E</tspan></text>
  <text class="cls-3" transform="translate(135.49 143.66) rotate(-42.93) scale(1.02 1)"><tspan x="0" y="0">t</tspan></text>
  <text class="cls-3" transform="translate(141.79 137.84) rotate(-50.8) scale(1.02 1)"><tspan x="0" y="0">c</tspan></text>
  <text class="cls-2" transform="translate(151.14 128.46) rotate(-57.84) scale(1.02 1)"><tspan x="0" y="0"> </tspan></text>
  <text class="cls-2" transform="translate(153.58 124.58) rotate(-61.17) scale(1.02 1)"><tspan x="0" y="0"> </tspan></text>
  <text class="cls-2" transform="translate(155.78 120.56) rotate(-64.52) scale(1.02 1)"><tspan x="0" y="0"> </tspan></text>
  <text class="cls-2" transform="translate(157.74 116.44) rotate(-67.87) scale(1.02 1)"><tspan x="0" y="0"> </tspan></text>
  <text class="cls-2" transform="translate(159.46 112.2) rotate(-71.24) scale(1.02 1)"><tspan x="0" y="0"> </tspan></text>
  <text class="cls-2" transform="translate(160.92 107.87) rotate(-74.62) scale(1.02 1)"><tspan x="0" y="0"> </tspan></text>
  <text class="cls-2" transform="translate(162.13 103.42) rotate(-78.02) scale(1.02 1)"><tspan x="0" y="0"> </tspan></text>
  <text class="cls-2" transform="translate(163.08 98.96) rotate(-81.39) scale(1.02 1)"><tspan x="0" y="0"> </tspan></text>
  <text class="cls-2" transform="translate(163.75 94.43) rotate(-84.75) scale(1.02 1)"><tspan x="0" y="0"> </tspan></text>
  <text class="cls-2" transform="translate(164.17 89.86) rotate(-88.09) scale(1.02 1)"><tspan x="0" y="0"> </tspan></text>
  <text class="cls-2" transform="translate(164.31 85.29) rotate(-91.38) scale(1.02 1)"><tspan x="0" y="0"> </tspan></text>
  <text class="cls-2" transform="translate(164.2 80.73) rotate(-94.7) scale(1.02 1)"><tspan x="0" y="0"> </tspan></text>
  <text class="cls-2" transform="translate(163.82 76.18) rotate(-98.05) scale(1.02 1)"><tspan x="0" y="0"> </tspan></text>
  <text class="cls-2" transform="translate(163.17 71.64) rotate(-101.43) scale(1.02 1)"><tspan x="0" y="0"> </tspan></text>
  <text class="cls-2" transform="translate(162.25 67.15) rotate(-104.81) scale(1.02 1)"><tspan x="0" y="0"> </tspan></text>
  <text class="cls-2" transform="translate(161.08 62.72) rotate(-108.2) scale(1.02 1)"><tspan x="0" y="0"> </tspan></text>
  <text class="cls-2" transform="translate(159.64 58.37) rotate(-111.57) scale(1.02 1)"><tspan x="0" y="0"> </tspan></text>
  <text class="cls-2" transform="translate(157.95 54.13) rotate(-114.92) scale(1.02 1)"><tspan x="0" y="0"> </tspan></text>
  <text class="cls-2" transform="translate(156 49.96) rotate(-118.29) scale(1.02 1)"><tspan x="0" y="0"> </tspan></text>
  <text class="cls-2" transform="translate(153.84 45.94) rotate(-121.61) scale(1.02 1)"><tspan x="0" y="0"> </tspan></text>
  <text class="cls-2" transform="translate(151.44 42.06) rotate(-124.91) scale(1.02 1)"><tspan x="0" y="0"> </tspan></text>
  <path class="cls-5" d="m100.79,103.93c2.12.08,3.18.05,5.04.33-.39-1.45-.49-2.23-2.44-3.76-2.04-1.43-4.31-1.91-6.73-2.31-3.24-.58-6.66-.33-10.1-.16-3.53.47-6.94,1.43-10.6,2.98-6.26,2.1-10.55,5.67-15.89,9.78-2.53,2.07-4.78,3.54-7.44,6.35-1.64,2.13-2.51,3.24-3.31,6.62-.25,4.21.96,6.57,2.46,8.85,2.45,3.05,5.63,5.5,9,7.5,4.74,3.11,8.85,4.25,13.5,4.27,6.71.25,9.67-.4,15.17-1.35,5.48-1.58,9.2-3.05,13.6-4.6,4.91-2.03,8.36-3.89,12.37-5.94,4.97-2.88,9.79-5.89,14.7-8.84l16.33-10.42-22.56,13.1c-5.44,2.8-7.9,4.33-15.08,7.4-6.03,2.15-10.13,3.2-17.56,3.9-4.43.07-7.87-.12-13-1-5.38-.88-10.21-3.33-14.94-6.49-2.65-1.78-4.41-2.59-6.28-5.14-.86-1.04-2.39-2.88-1.22-5.85,1.66-2.35,4.47-4.13,5.93-4.72,4.85-2.61,9.15-3.83,13.95-5.86,2.68-1.23,4.9-1.94,7.51-2.94,2.69-.66,5.46-1.25,8.05-1.4,3.02-.41,6.54-.4,9.53-.29h0Z"/>
  <path class="cls-6" d="m60.62,45.8c-7.43.63-15.26,1.58-22.83,1.93,2.59-2.16,4.46-3.48,6.67-5.12,2.53-1.55,2.96-1.69,3.97-2.16.53-.25,2.3-1.04,3.08-1.36.08-.03,2.42-.84,2.67-.94,1.1-.43,1.76-.49,2.78-.73,1.2-.28,2.21-.45,3.29-.64.04,0,.14,0,1.67-.24.1-.01,2.4-.26,2.5-.29,1.82-.1,2.68-.21,4.37-.17,2.24.06,4.03-.02,6.08.15.76.07,9.26.48,10.36.48,2.75,0,5.79.27,8.25.24,2.33-.03,10.15.1,12.04.09.77,0,1.64-.31,2.75-.6,3.06-.8,7.32-1.81,7.65.12.13.79.29,1.73-.4,2.36-.85.78-1.37.95-3.38.88-2.05-.08-1.53-.06-3.42-.6-.82-.24-1.34-.3-2.71-.25-1.07.03-2.27.03-3.22.08-1.84.1-6.42.73-9.93,1.37-.77.14-1.14.25-2.67.44-.41.05-1.52.02-2.83.31l.67,6.75.8,11.09c.1,1.78-1.97,35.87-1.98,35.95-.36,4.8-.36,10.18-1.12,20.05-.48,6.22-.89,13.5-1.49,17.93-.18,1.32-.17,2.55-.39,3.25-.21.68-.67.86-.85.79-.06-.02-.74-.17-.73-.62.01-.46.51-2.43.61-3.26.42-3.67,1.02-9.3.83-16.39-.58-21.02-1.72-53.64-2.28-57.67.13-3.47-.14-6.44.15-10.24.4-2.59,1.02-4.5,1.5-6.95-2.02.86-3.85,1.37-6.46,1.83-2.24.3-4.42.64-6.61.97-2.32.35-5.35.64-9.37,1.15h0Z"/>
  <path class="cls-4" d="m78.93,95.05c-1.46-.07-6.06-.44-6.82-1.81-.15-.26,1.99-.63,5.8-3.43,3.28-2.41,7.29-4.86,9.2-7.04,1.28-1.46,2.48-2.61,2.29-3.94-.01-.11-.31-1.65-2.59-1.88-1.32-.14-2.54,1.05-4.33,2.55-5.56,4.64-6.14,5.3-8.82,8.8-1.86,2.42-2.49,5.79-2.79,7.49-.17.95-.27,2.28-.4,3.87-.11,1.29-.19,2.58-.25,3.88-.08,2.75.11,5.35.5,7.95.72,3.52,1.71,6.5,3.05,10.05,1.78,3.73,3.54,6.15,6.25,9l.72,1.02c-2.12-.13-3.96-.99-5.82-2.42-4.48-3.93-8.27-8.26-11.83-13.27-1.28-2.28-2.31-4.06-3.5-6.75-1.4-3.96-2.24-7.91-2.77-12.28-.22-5.11-.28-8.34.75-12.4,1-3.71,2.02-5.49,3.6-8.35,2.86-4.48,5.12-6.78,8.05-9.6,2.42-2.05,4.43-3.38,6.8-4.65,1.87-.88,3.43-1.78,5.3-2.3,2.71-.85,5.63-.79,7.8-.1,4.98,1.6,9.33,5.14,11.27,9.19,1.87,3.15,2.63,5.75,2.6,9.45-.13,1.96-.52,3.69-1.43,5.47-1.02,2.04-2.28,3.37-3.72,4.94-1.85,1.91-5.21,4.94-9.43,6.03-2.74.71-5.81.73-9.48.55Z"/>
</svg>