<?xml version="1.0" encoding="utf-8"?>
<!-- Generator: Adobe Illustrator 27.5.0, SVG Export Plug-In . SVG Version: 6.00 Build 0)  -->
<svg version="1.1" id="Layer_1" xmlns="http://www.w3.org/2000/svg" xmlns:xlink="http://www.w3.org/1999/xlink" x="0px" y="0px"
	 viewBox="0 0 1152 1152" style="enable-background:new 0 0 1152 1152;" xml:space="preserve">
<style type="text/css">
	.st0{fill-rule:evenodd;clip-rule:evenodd;fill:#3F3B63;}
	.st1{fill-rule:evenodd;clip-rule:evenodd;fill:#61A535;}
	.st2{fill-rule:evenodd;clip-rule:evenodd;fill:#452E82;}
	.st3{fill-rule:evenodd;clip-rule:evenodd;fill:#F9CEDA;}
	.st4{fill:#FFFFFF;}
	.st5{fill:#3F3B63;}
</style>
<g>
	<path class="st0" d="M534.31,604.77c0.05,3.79,0.31,17.73,0.16,30.27c-0.27,21.36-0.81,58.63-1.15,73.68
		c-0.16,7.41-2.39,56.18-2.67,67.33c-0.26,10.18-1.39,21.39-3.11,27.52c-1.34,4.77-2.06,5.99-1.29,7c0.52,0.67,0.97,1.18,2.24,1.36
		c0.61,0.09,1.27,0.26,2.52-0.03c3.39-0.78,3.24-8.46,4.34-15.81c1.99-13.28,3.39-29.87,3.93-36.65
		c1.23-15.57,2.93-37.04,3.25-44.13c0.77-16.8,2.18-33.51,2.37-39.91c0.15-5.08,2.15-27.59,2.61-35.45
		c0.92-15.75,1.31-29.36,1.23-33.46c-0.01-0.59,0.11-3.6-0.07-4.27c-0.94-0.18-3.36,0.22-5.41,0.69
		C542.43,603.09,539.33,603.74,534.31,604.77L534.31,604.77z M534.31,604.77"/>
	<g>
		<path class="st1" d="M618.69,646.58c10.58,0.42,15.88,0.25,25.22,1.63c-1.95-7.25-2.45-11.14-12.18-18.81
			c-10.22-7.15-21.57-9.53-33.66-11.53c-16.21-2.89-33.3-1.66-50.52-0.8c-17.67,2.34-34.71,7.17-53,14.88
			c-31.3,10.5-52.77,28.36-79.45,48.91c-12.67,10.33-23.9,17.69-37.2,31.77c-8.22,10.66-12.57,16.19-16.55,33.09
			c-1.23,21.03,4.79,32.83,12.3,44.24c12.25,15.25,28.13,27.5,45,37.5c23.69,15.53,44.25,21.26,67.51,21.36
			c33.54,1.25,48.33-2,75.87-6.75c27.42-7.91,46.02-15.25,68-23c24.54-10.16,41.8-19.46,61.84-29.72
			c24.84-14.41,48.95-29.46,73.5-44.19l81.66-52.09l-112.81,65.51c-27.22,14.02-39.5,21.67-75.38,37
			c-30.17,10.75-50.65,15.99-87.82,19.49c-22.16,0.34-39.33-0.58-65-5c-26.92-4.41-51.06-16.64-74.7-32.43
			c-13.25-8.88-22.05-12.94-31.42-25.69c-4.3-5.22-11.97-14.41-6.09-29.25c8.28-11.77,22.35-20.66,29.66-23.62
			c24.25-13.04,45.77-19.15,69.77-29.32c13.41-6.15,24.49-9.7,37.53-14.72c13.46-3.29,27.3-6.23,40.26-7.02
			C586.14,645.97,603.73,646,618.69,646.58L618.69,646.58z M618.69,646.58"/>
	</g>
	<g>
		<path class="st2" d="M417.83,355.93c-37.16,3.17-76.31,7.92-114.16,9.65c12.93-10.82,22.28-17.39,33.34-25.62
			c12.65-7.73,14.79-8.44,19.85-10.8c2.64-1.23,11.49-5.2,15.42-6.79c0.39-0.15,12.12-4.2,13.36-4.68c5.5-2.14,8.81-2.44,13.91-3.64
			c6-1.41,11.03-2.24,16.47-3.18c0.18-0.03,0.71-0.05,8.35-1.18c0.52-0.07,12.01-1.28,12.49-1.44c9.12-0.48,13.42-1.06,21.86-0.85
			c11.22,0.28,20.16-0.12,30.39,0.76c3.78,0.33,46.28,2.39,51.8,2.39c13.73,0,28.95,1.36,41.26,1.19
			c11.67-0.16,50.73,0.48,60.18,0.45c3.86-0.02,8.21-1.55,13.76-2.99c15.32-3.99,36.61-9.07,38.25,0.61c0.67,3.93,1.44,8.64-2,11.81
			c-4.23,3.91-6.86,4.76-16.92,4.38c-10.23-0.39-7.64-0.3-17.1-3c-4.12-1.18-6.7-1.48-13.56-1.27c-5.34,0.16-11.37,0.17-16.1,0.42
			c-9.2,0.48-32.12,3.64-49.67,6.85c-3.85,0.71-5.68,1.23-13.36,2.2c-2.06,0.26-7.61,0.08-14.16,1.55l3.34,33.75l4,55.44
			c0.51,9.12-4.17,178.44-9.84,178.92c-2.03,0.18-1.81,51.17-5.66,101.1c-2.39,31.08-4.43,67.51-7.43,89.63
			c-0.9,6.61-0.83,12.74-1.95,16.27c-1.07,3.38-3.35,4.3-4.27,3.96c-0.3-0.12-3.72-0.84-3.66-3.11c0.06-2.3,2.57-12.14,3.06-16.32
			c2.12-18.34,5.11-46.52,4.14-81.95c-2.9-105.08-8.62-268.21-11.38-288.33c0.66-17.33-0.68-32.22,0.73-51.18
			c2-12.96,5.12-22.48,7.5-34.75c-10.08,4.3-19.23,6.86-32.31,9.17c-11.2,1.52-22.12,3.18-33.06,4.83
			C453.12,351.92,437.93,353.39,417.83,355.93L417.83,355.93z M417.83,355.93"/>
	</g>
	<path class="st3" d="M509.43,606.78c-14.26,0.25-25.89,0-40.39-0.94c-1.59,12.92-2.61,25.71-3.25,38.75
		c-0.42,13.75,0.54,26.75,2.5,39.75c3.58,17.62,8.54,32.5,15.25,50.25c8.91,18.63,17.71,30.75,31.25,45l3.62,5.12
		c-10.59-0.67-19.79-4.96-29.12-12.12c-22.42-19.67-41.36-41.32-59.15-66.36c-6.42-11.41-11.54-20.31-17.5-33.75
		c-7.01-19.79-11.22-39.53-13.85-61.39c-1.12-25.54-1.38-41.71,3.75-62c5-18.54,10.12-27.46,18-41.75
		c14.29-22.38,25.58-33.88,40.25-48c12.08-10.25,22.16-16.88,34-23.25c9.35-4.42,17.16-8.92,26.5-11.5c13.54-4.25,28.14-3.97,39-0.5
		c24.91,8,46.67,25.68,56.34,45.93c9.33,15.75,13.17,28.75,13,47.25c-0.65,9.82-2.61,18.47-7.15,27.34
		c-5.1,10.19-11.38,16.84-18.61,24.69c-9.23,9.56-26.89,22.18-47.13,30.15C541.97,605.29,526.07,605.78,509.43,606.78L509.43,606.78
		z M509.43,606.78"/>
	<path class="st4" d="M513.39,573.71c-14.25,10.5-20.1,13.76-40.73,20.76c3.88-17.54,14.48-32.46,26.1-45.25
		c12.92-12.41,30.45-26.48,37.41-32.26c4.35-3.34,5.71-4.6,9.46-5.45c3.64-0.16,6.63,0.42,8.26,3.98c2.38,5.79,2.77,11.45,0.89,18.5
		c-3.04,6.32-9.39,12-14.78,17.96C534.77,557.74,523.43,566.84,513.39,573.71L513.39,573.71z M513.39,573.71"/>
	<path class="st5" d="M550.5,512.09c-3-0.59-5.62-0.63-8.54,0.73c-4.96,2.3-10,7.61-14.87,11.61l1.41,37.98
		c8.71-7.62,14.66-13.86,21.73-21.6L550.5,512.09z M550.5,512.09"/>
</g>
</svg>
