<?xml version="1.0" encoding="utf-8"?>
<!-- Generator: Adobe Illustrator 27.5.0, SVG Export Plug-In . SVG Version: 6.00 Build 0)  -->
<svg version="1.1" id="Layer_1" xmlns="http://www.w3.org/2000/svg" xmlns:xlink="http://www.w3.org/1999/xlink" x="0px" y="0px"
	 viewBox="0 0 1152 1152" style="enable-background:new 0 0 1152 1152;" xml:space="preserve">
<style type="text/css">
	.st0{fill-rule:evenodd;clip-rule:evenodd;fill:#61A535;}
	.st1{fill-rule:evenodd;clip-rule:evenodd;fill:#452E82;}
	.st2{fill-rule:evenodd;clip-rule:evenodd;fill:#F9CEDA;}
</style>
<path class="st0" d="M618.69,646.58c10.58,0.42,15.88,0.25,25.22,1.63c-1.95-7.25-2.45-11.14-12.18-18.81
	c-10.22-7.15-21.57-9.53-33.66-11.53c-16.21-2.89-33.3-1.66-50.52-0.8c-17.67,2.34-34.71,7.17-53,14.88
	c-31.3,10.5-52.77,28.36-79.45,48.91c-12.67,10.33-23.9,17.69-37.2,31.77c-8.22,10.66-12.57,16.19-16.55,33.09
	c-1.23,21.03,4.79,32.83,12.3,44.24c12.25,15.25,28.13,27.5,45,37.5c23.69,15.53,44.25,21.26,67.51,21.36
	c33.54,1.25,48.33-2,75.87-6.75c27.42-7.91,46.02-15.25,68-23c24.54-10.16,41.8-19.46,61.84-29.72
	c24.84-14.41,48.95-29.46,73.5-44.19l81.66-52.09l-112.81,65.51c-27.22,14.02-39.5,21.67-75.38,37
	c-30.17,10.75-50.65,15.99-87.82,19.49c-22.16,0.34-39.33-0.58-65-5c-26.92-4.41-51.06-16.64-74.7-32.43
	c-13.25-8.88-22.05-12.94-31.42-25.69c-4.3-5.22-11.97-14.41-6.09-29.25c8.28-11.77,22.35-20.66,29.66-23.62
	c24.25-13.04,45.77-19.15,69.77-29.32c13.41-6.15,24.49-9.7,37.53-14.72c13.46-3.29,27.3-6.23,40.26-7.02
	C586.14,645.97,603.73,646,618.69,646.58L618.69,646.58z"/>
<path class="st1" d="M417.83,355.93c-37.16,3.17-76.31,7.92-114.16,9.65c12.93-10.82,22.28-17.39,33.34-25.62
	c12.65-7.73,14.79-8.44,19.85-10.8c2.64-1.23,11.49-5.2,15.42-6.79c0.39-0.15,12.12-4.2,13.36-4.68c5.5-2.14,8.81-2.44,13.91-3.64
	c6-1.41,11.03-2.24,16.47-3.18c0.18-0.03,0.71-0.05,8.35-1.18c0.52-0.07,12.01-1.28,12.49-1.44c9.12-0.48,13.42-1.06,21.86-0.85
	c11.22,0.28,20.16-0.12,30.39,0.76c3.78,0.33,46.28,2.39,51.8,2.39c13.73,0,28.95,1.36,41.26,1.19c11.67-0.16,50.73,0.48,60.18,0.45
	c3.86-0.02,8.21-1.55,13.76-2.99c15.32-3.99,36.61-9.07,38.25,0.61c0.67,3.93,1.44,8.64-2,11.81c-4.23,3.91-6.86,4.76-16.92,4.38
	c-10.23-0.39-7.64-0.3-17.1-3c-4.12-1.18-6.7-1.48-13.56-1.27c-5.34,0.16-11.37,0.17-16.1,0.42c-9.2,0.48-32.12,3.64-49.67,6.85
	c-3.85,0.71-5.68,1.23-13.36,2.2c-2.06,0.26-7.61,0.08-14.16,1.55l3.34,33.75l4,55.44c0.5,8.91-9.87,179.35-9.9,179.77
	c-1.8,24.01-1.79,50.9-5.6,100.25c-2.39,31.08-4.43,67.51-7.43,89.63c-0.9,6.61-0.83,12.74-1.95,16.27
	c-1.07,3.38-3.35,4.3-4.27,3.96c-0.3-0.12-3.72-0.84-3.66-3.11c0.06-2.3,2.57-12.14,3.06-16.32c2.12-18.34,5.11-46.52,4.14-81.95
	c-2.9-105.08-8.62-268.21-11.38-288.33c0.66-17.33-0.68-32.22,0.73-51.18c2-12.96,5.12-22.48,7.5-34.75
	c-10.08,4.3-19.23,6.86-32.31,9.17c-11.2,1.52-22.12,3.18-33.06,4.83C453.12,351.92,437.93,353.39,417.83,355.93L417.83,355.93z"/>
<path class="st2" d="M509.35,602.18c-7.32-0.36-30.28-2.2-34.12-9.03c-0.73-1.3,9.95-3.15,29-17.15
	c16.38-12.03,36.45-24.28,46-35.19c6.38-7.3,12.39-13.03,11.46-19.69c-0.07-0.53-1.54-8.24-12.94-9.42
	c-6.58-0.68-12.69,5.24-21.65,12.73c-27.79,23.21-30.69,26.5-44.11,43.98c-9.28,12.09-12.47,28.96-13.94,37.43
	c-0.83,4.76-1.33,11.42-1.98,19.33c-0.53,6.44-0.95,12.9-1.27,19.42c-0.42,13.75,0.54,26.75,2.5,39.75
	c3.58,17.62,8.54,32.5,15.25,50.25c8.91,18.63,17.71,30.75,31.25,45l3.62,5.12c-10.59-0.67-19.79-4.96-29.12-12.12
	c-22.42-19.67-41.36-41.32-59.15-66.36c-6.42-11.41-11.54-20.31-17.5-33.75c-7.01-19.79-11.22-39.53-13.85-61.39
	c-1.12-25.54-1.38-41.71,3.75-62c5-18.54,10.12-27.46,18-41.75c14.29-22.38,25.58-33.88,40.25-48c12.08-10.25,22.16-16.88,34-23.25
	c9.35-4.42,17.16-8.92,26.5-11.5c13.54-4.25,28.14-3.97,39-0.5c24.91,8,46.67,25.68,56.34,45.93c9.33,15.75,13.17,28.75,13,47.25
	c-0.65,9.82-2.61,18.47-7.15,27.34c-5.1,10.19-11.38,16.84-18.61,24.69c-9.23,9.56-26.07,24.7-47.13,30.15
	C543.03,603,527.69,603.08,509.35,602.18z"/>
</svg>
