<?xml version="1.0" encoding="utf-8"?>
<!-- Generator: Adobe Illustrator 27.5.0, SVG Export Plug-In . SVG Version: 6.00 Build 0)  -->
<svg version="1.1" id="Layer_1" xmlns="http://www.w3.org/2000/svg" xmlns:xlink="http://www.w3.org/1999/xlink" x="0px" y="0px"
	 viewBox="0 0 283.46 113.39" style="enable-background:new 0 0 283.46 113.39;" xml:space="preserve">
<style type="text/css">
	.st0{fill:none;}
	.st1{stroke:#000000;stroke-miterlimit:10;}
	.st2{font-family:'Mina-Regular';}
	.st3{font-size:22px;}
	.st4{clip-path:url(#SVGID_00000107551960073563221370000012849792855680517002_);}
	
		.st5{clip-path:url(#SVGID_00000147908326556351162190000011584679944162694296_);fill-rule:evenodd;clip-rule:evenodd;fill:#60A544;}
	
		.st6{clip-path:url(#SVGID_00000147908326556351162190000011584679944162694296_);fill-rule:evenodd;clip-rule:evenodd;fill:#452E81;}
	
		.st7{clip-path:url(#SVGID_00000147908326556351162190000011584679944162694296_);fill-rule:evenodd;clip-rule:evenodd;fill:#FACFDA;}
	.st8{font-family:'Arial-BoldMT';}
	.st9{font-size:14px;}
	.st10{fill:none;stroke:#000000;stroke-width:3;stroke-miterlimit:10;}
</style>
<rect x="31.07" y="44.72" class="st0" width="234.39" height="25.77"/>
<text transform="matrix(1 0 0 1 57.1465 55.8692)" class="st1 st2 st3">Ceramics Etc</text>
<g>
	<g>
		<defs>
			<rect id="SVGID_1_" x="-18.89" width="115.2" height="115.2"/>
		</defs>
		<clipPath id="SVGID_00000174573218142673141300000009533376323398996631_">
			<use xlink:href="#SVGID_1_"  style="overflow:visible;"/>
		</clipPath>
		<g style="clip-path:url(#SVGID_00000174573218142673141300000009533376323398996631_);">
			<defs>
				<rect id="SVGID_00000011749011602399210350000017076978377379266960_" x="-18.89" width="115.2" height="115.2"/>
			</defs>
			<clipPath id="SVGID_00000034065152435958551410000001161406273784043962_">
				<use xlink:href="#SVGID_00000011749011602399210350000017076978377379266960_"  style="overflow:visible;"/>
			</clipPath>
			
				<path style="clip-path:url(#SVGID_00000034065152435958551410000001161406273784043962_);fill-rule:evenodd;clip-rule:evenodd;fill:#60A544;" d="
				M42.98,64.66c1.06,0.04,1.59,0.03,2.52,0.16c-0.19-0.72-0.24-1.11-1.22-1.88c-1.02-0.71-2.16-0.95-3.37-1.15
				c-1.62-0.29-3.33-0.17-5.05-0.08c-1.77,0.23-3.47,0.72-5.3,1.49c-3.13,1.05-5.28,2.84-7.94,4.89c-1.27,1.03-2.39,1.77-3.72,3.18
				c-0.82,1.07-1.26,1.62-1.66,3.31c-0.12,2.1,0.48,3.28,1.23,4.42c1.23,1.52,2.81,2.75,4.5,3.75c2.37,1.55,4.42,2.13,6.75,2.14
				c3.35,0.12,4.83-0.2,7.59-0.68c2.74-0.79,4.6-1.53,6.8-2.3c2.45-1.02,4.18-1.95,6.18-2.97c2.48-1.44,4.9-2.95,7.35-4.42
				l8.17-5.21l-11.28,6.55c-2.72,1.4-3.95,2.17-7.54,3.7c-3.02,1.07-5.07,1.6-8.78,1.95c-2.22,0.03-3.93-0.06-6.5-0.5
				c-2.69-0.44-5.11-1.66-7.47-3.24c-1.33-0.89-2.2-1.29-3.14-2.57c-0.43-0.52-1.2-1.44-0.61-2.93c0.83-1.18,2.24-2.07,2.97-2.36
				c2.43-1.3,4.58-1.92,6.98-2.93c1.34-0.61,2.45-0.97,3.75-1.47c1.35-0.33,2.73-0.62,4.03-0.7C39.72,64.6,41.48,64.6,42.98,64.66"
				/>
			
				<path style="clip-path:url(#SVGID_00000034065152435958551410000001161406273784043962_);fill-rule:evenodd;clip-rule:evenodd;fill:#452E81;" d="
				M22.89,35.59c-3.72,0.32-7.63,0.79-11.42,0.97c1.29-1.08,2.23-1.74,3.33-2.56c1.26-0.77,1.48-0.84,1.98-1.08
				c0.26-0.12,1.15-0.52,1.54-0.68c0.04-0.02,1.21-0.42,1.34-0.47c0.55-0.21,0.88-0.24,1.39-0.36c0.6-0.14,1.1-0.22,1.65-0.32
				c0.02,0,0.07,0,0.84-0.12c0.05-0.01,1.2-0.13,1.25-0.14c0.91-0.05,1.34-0.11,2.19-0.08c1.12,0.03,2.02-0.01,3.04,0.08
				c0.38,0.03,4.63,0.24,5.18,0.24c1.37,0,2.9,0.14,4.13,0.12c1.17-0.02,5.07,0.05,6.02,0.05c0.39,0,0.82-0.15,1.38-0.3
				c1.53-0.4,3.66-0.91,3.83,0.06c0.07,0.39,0.14,0.86-0.2,1.18c-0.42,0.39-0.69,0.48-1.69,0.44c-1.02-0.04-0.76-0.03-1.71-0.3
				c-0.41-0.12-0.67-0.15-1.36-0.13c-0.53,0.02-1.14,0.02-1.61,0.04c-0.92,0.05-3.21,0.36-4.97,0.68c-0.39,0.07-0.57,0.12-1.34,0.22
				c-0.21,0.03-0.76,0.01-1.42,0.15l0.33,3.38l0.4,5.54c0.05,0.89-0.99,17.93-0.99,17.98c-0.18,2.4-0.18,5.09-0.56,10.02
				C35.2,73.3,35,76.95,34.7,79.16c-0.09,0.66-0.08,1.27-0.19,1.63c-0.11,0.34-0.34,0.43-0.43,0.4c-0.03-0.01-0.37-0.08-0.37-0.31
				c0.01-0.23,0.26-1.21,0.31-1.63c0.21-1.83,0.51-4.65,0.41-8.19c-0.29-10.51-0.86-26.82-1.14-28.83c0.07-1.73-0.07-3.22,0.07-5.12
				c0.2-1.3,0.51-2.25,0.75-3.47c-1.01,0.43-1.92,0.69-3.23,0.92c-1.12,0.15-2.21,0.32-3.31,0.48
				C26.42,35.19,24.9,35.34,22.89,35.59"/>
			
				<path style="clip-path:url(#SVGID_00000034065152435958551410000001161406273784043962_);fill-rule:evenodd;clip-rule:evenodd;fill:#FACFDA;" d="
				M32.05,60.22c-0.73-0.04-3.03-0.22-3.41-0.9c-0.07-0.13,1-0.32,2.9-1.71c1.64-1.2,3.65-2.43,4.6-3.52
				c0.64-0.73,1.24-1.3,1.15-1.97c-0.01-0.05-0.15-0.82-1.29-0.94c-0.66-0.07-1.27,0.52-2.17,1.27c-2.78,2.32-3.07,2.65-4.41,4.4
				c-0.93,1.21-1.25,2.9-1.39,3.74c-0.08,0.48-0.13,1.14-0.2,1.93c-0.05,0.64-0.09,1.29-0.13,1.94c-0.04,1.38,0.05,2.68,0.25,3.98
				c0.36,1.76,0.85,3.25,1.53,5.02c0.89,1.86,1.77,3.08,3.12,4.5l0.36,0.51c-1.06-0.07-1.98-0.5-2.91-1.21
				c-2.24-1.97-4.14-4.13-5.91-6.64c-0.64-1.14-1.15-2.03-1.75-3.38c-0.7-1.98-1.12-3.95-1.39-6.14c-0.11-2.55-0.14-4.17,0.38-6.2
				c0.5-1.85,1.01-2.75,1.8-4.18c1.43-2.24,2.56-3.39,4.02-4.8c1.21-1.02,2.22-1.69,3.4-2.33c0.93-0.44,1.72-0.89,2.65-1.15
				c1.35-0.42,2.81-0.4,3.9-0.05c2.49,0.8,4.67,2.57,5.63,4.59c0.93,1.58,1.32,2.88,1.3,4.72c-0.07,0.98-0.26,1.85-0.72,2.73
				c-0.51,1.02-1.14,1.68-1.86,2.47c-0.92,0.96-2.61,2.47-4.71,3.01C35.41,60.3,33.88,60.31,32.05,60.22"/>
		</g>
	</g>
</g>
<rect x="68.61" y="66.24" class="st0" width="190.35" height="30.57"/>
<text transform="matrix(1 0 0 1 68.607 76.2645)" class="st8 st9">www.ceramics-etc.co.uk</text>
<circle class="st10" cx="264.46" cy="59.37" r="9.11"/>
</svg>
