<?xml version='1.0' encoding='utf-8'?>
<svg width="952.39mm" height="294.02mm" viewBox="0.0 0.0 952.39 294.02" xmlns="http://www.w3.org/2000/svg" xmlns:dc="http://purl.org/dc/elements/1.1/" xmlns:cc="http://creativecommons.org/ns#" xmlns:rdf="http://www.w3.org/1999/02/22-rdf-syntax-ns#" xmlns:svg="http://www.w3.org/2000/svg" xmlns:xlink="http://www.w3.org/1999/xlink" xmlns:inkscape="http://www.inkscape.org/namespaces/inkscape">
<!--
TrayLayout - Generate a typetray from a layout file.


This is a two step process. This is step 2.
Edit the layout text graphics to adjust your tray.
Put in the sizes for each column and row. You can replace the hyphens and
vertical bars representing the walls with a space character to remove the walls.
You can replace the space characters representing the floor by a "X" to remove the floor for this compartment.



Created with Boxes.py (https://festi.info/boxes.py)
Creation date: 2023-06-01 08:27:43
Command line (remove spaces between dashes): boxes TrayLayout - -h=30.0 - -outside=0 '- -sx=50*4' '- -sy=50*2' '- -layout= ,> 80.00mm\n | ,> 75.00mm\n | | ,> 70.00mm\n | | | ,> 48.00mm\n+-+-+-+-+\n| | | | |  145.00mm\n+-+-+-+-+\n| | | | |  22.50mm\n+-+-+-+-+\n' - -thickness=5.5 - -burn=0.11
Url: http://festi.info/boxes.py/TrayLayout?FingerJoint_angle=90.0&FingerJoint_style=rectangular&FingerJoint_surroundingspaces=2.0&FingerJoint_bottom_lip=0.0&FingerJoint_edge_width=1.0&FingerJoint_extra_length=0.0&FingerJoint_finger=2.0&FingerJoint_play=0.0&FingerJoint_space=2.0&FingerJoint_width=1.0&Lid_handle=none&Lid_style=none&Lid_handle_height=8.0&Lid_height=4.0&Lid_play=0.1&h=30.0&hi=0.0&outside=0&sx=50*4&sy=50*2&layout=+%2C%3E+80.00mm%0D%0A+%7C+%2C%3E+75.00mm%0D%0A+%7C+%7C+%2C%3E+70.00mm%0D%0A+%7C+%7C+%7C+%2C%3E+48.00mm%0D%0A%2B-%2B-%2B-%2B-%2B%0D%0A%7C+%7C+%7C+%7C+%7C++145.00mm%0D%0A%2B-%2B-%2B-%2B-%2B%0D%0A%7C+%7C+%7C+%7C+%7C++22.50mm%0D%0A%2B-%2B-%2B-%2B-%2B%0D%0A&thickness=5.5&format=svg&tabs=0.0&qr_code=0&debug=0&labels=0&labels=1&reference=100&inner_corners=loop&burn=0.11&language=en&render=2
Url short: http://festi.info/boxes.py/TrayLayout?h=30.0&outside=0&sx=50*4&sy=50*2&layout=+%2C%3E+80.00mm%0D%0A+%7C+%2C%3E+75.00mm%0D%0A+%7C+%7C+%2C%3E+70.00mm%0D%0A+%7C+%7C+%7C+%2C%3E+48.00mm%0D%0A%2B-%2B-%2B-%2B-%2B%0D%0A%7C+%7C+%7C+%7C+%7C++145.00mm%0D%0A%2B-%2B-%2B-%2B-%2B%0D%0A%7C+%7C+%7C+%7C+%7C++22.50mm%0D%0A%2B-%2B-%2B-%2B-%2B%0D%0A&thickness=5.5&burn=0.11
SettingsUrl: http://festi.info/boxes.py/TrayLayout?FingerJoint_angle=90.0&FingerJoint_style=rectangular&FingerJoint_surroundingspaces=2.0&FingerJoint_bottom_lip=0.0&FingerJoint_edge_width=1.0&FingerJoint_extra_length=0.0&FingerJoint_finger=2.0&FingerJoint_play=0.0&FingerJoint_space=2.0&FingerJoint_width=1.0&Lid_handle=none&Lid_style=none&Lid_handle_height=8.0&Lid_height=4.0&Lid_play=0.1&h=30.0&hi=0.0&outside=0&sx=50*4&sy=50*2&layout=+%2C%3E+80.00mm%0D%0A+%7C+%2C%3E+75.00mm%0D%0A+%7C+%7C+%2C%3E+70.00mm%0D%0A+%7C+%7C+%7C+%2C%3E+48.00mm%0D%0A%2B-%2B-%2B-%2B-%2B%0D%0A%7C+%7C+%7C+%7C+%7C++145.00mm%0D%0A%2B-%2B-%2B-%2B-%2B%0D%0A%7C+%7C+%7C+%7C+%7C++22.50mm%0D%0A%2B-%2B-%2B-%2B-%2B%0D%0A&thickness=5.5&format=svg&tabs=0.0&qr_code=0&debug=0&labels=0&labels=1&reference=100&inner_corners=loop&burn=0.11&language=en&render=2
SettingsUrl short: http://festi.info/boxes.py/TrayLayout?h=30.0&outside=0&sx=50*4&sy=50*2&layout=+%2C%3E+80.00mm%0D%0A+%7C+%2C%3E+75.00mm%0D%0A+%7C+%7C+%2C%3E+70.00mm%0D%0A+%7C+%7C+%7C+%2C%3E+48.00mm%0D%0A%2B-%2B-%2B-%2B-%2B%0D%0A%7C+%7C+%7C+%7C+%7C++145.00mm%0D%0A%2B-%2B-%2B-%2B-%2B%0D%0A%7C+%7C+%7C+%7C+%7C++22.50mm%0D%0A%2B-%2B-%2B-%2B-%2B%0D%0A&thickness=5.5&burn=0.11
-->
<title>TrayLayout</title>
<metadata>
<rdf:RDF><cc:Work>
<dc:title>Tray - TrayLayout</dc:title>
<dc:date>2023-06-01 08:27:43</dc:date>
<dc:source>http://festi.info/boxes.py/TrayLayout?FingerJoint_angle=90.0&amp;FingerJoint_style=rectangular&amp;FingerJoint_surroundingspaces=2.0&amp;FingerJoint_bottom_lip=0.0&amp;FingerJoint_edge_width=1.0&amp;FingerJoint_extra_length=0.0&amp;FingerJoint_finger=2.0&amp;FingerJoint_play=0.0&amp;FingerJoint_space=2.0&amp;FingerJoint_width=1.0&amp;Lid_handle=none&amp;Lid_style=none&amp;Lid_handle_height=8.0&amp;Lid_height=4.0&amp;Lid_play=0.1&amp;h=30.0&amp;hi=0.0&amp;outside=0&amp;sx=50*4&amp;sy=50*2&amp;layout=+%2C%3E+80.00mm%0D%0A+%7C+%2C%3E+75.00mm%0D%0A+%7C+%7C+%2C%3E+70.00mm%0D%0A+%7C+%7C+%7C+%2C%3E+48.00mm%0D%0A%2B-%2B-%2B-%2B-%2B%0D%0A%7C+%7C+%7C+%7C+%7C++145.00mm%0D%0A%2B-%2B-%2B-%2B-%2B%0D%0A%7C+%7C+%7C+%7C+%7C++22.50mm%0D%0A%2B-%2B-%2B-%2B-%2B%0D%0A&amp;thickness=5.5&amp;format=svg&amp;tabs=0.0&amp;qr_code=0&amp;debug=0&amp;labels=0&amp;labels=1&amp;reference=100&amp;inner_corners=loop&amp;burn=0.11&amp;language=en&amp;render=2</dc:source>
<dc:source>http://festi.info/boxes.py/TrayLayout?h=30.0&amp;outside=0&amp;sx=50*4&amp;sy=50*2&amp;layout=+%2C%3E+80.00mm%0D%0A+%7C+%2C%3E+75.00mm%0D%0A+%7C+%7C+%2C%3E+70.00mm%0D%0A+%7C+%7C+%7C+%2C%3E+48.00mm%0D%0A%2B-%2B-%2B-%2B-%2B%0D%0A%7C+%7C+%7C+%7C+%7C++145.00mm%0D%0A%2B-%2B-%2B-%2B-%2B%0D%0A%7C+%7C+%7C+%7C+%7C++22.50mm%0D%0A%2B-%2B-%2B-%2B-%2B%0D%0A&amp;thickness=5.5&amp;burn=0.11</dc:source>
<dc:description>Generate a typetray from a layout file.

This is a two step process. This is step 2.
Edit the layout text graphics to adjust your tray.
Put in the sizes for each column and row. You can replace the hyphens and
vertical bars representing the walls with a space character to remove the walls.
You can replace the space characters representing the floor by a "X" to remove the floor for this compartment.


Created with Boxes.py (https://festi.info/boxes.py)
Command line: boxes TrayLayout --FingerJoint_angle=90.0 --FingerJoint_style=rectangular --FingerJoint_surroundingspaces=2.0 --FingerJoint_bottom_lip=0.0 --FingerJoint_edge_width=1.0 --FingerJoint_extra_length=0.0 --FingerJoint_finger=2.0 --FingerJoint_play=0.0 --FingerJoint_space=2.0 --FingerJoint_width=1.0 --Lid_handle=none --Lid_style=none --Lid_handle_height=8.0 --Lid_height=4.0 --Lid_play=0.1 --h=30.0 --hi=0.0 --outside=0 '--sx=50*4' '--sy=50*2' '--layout= ,&gt; 80.00mm\n | ,&gt; 75.00mm\n | | ,&gt; 70.00mm\n | | | ,&gt; 48.00mm\n+-+-+-+-+\n| | | | |  145.00mm\n+-+-+-+-+\n| | | | |  22.50mm\n+-+-+-+-+\n' --thickness=5.5 --format=svg --tabs=0.0 --qr_code=0 --debug=0 --labels=0 --labels=1 --reference=100 --inner_corners=loop --burn=0.11
Command line short: boxes TrayLayout --h=30.0 --outside=0 '--sx=50*4' '--sy=50*2' '--layout= ,&gt; 80.00mm\n | ,&gt; 75.00mm\n | | ,&gt; 70.00mm\n | | | ,&gt; 48.00mm\n+-+-+-+-+\n| | | | |  145.00mm\n+-+-+-+-+\n| | | | |  22.50mm\n+-+-+-+-+\n' --thickness=5.5 --burn=0.11
Url: http://festi.info/boxes.py/TrayLayout?FingerJoint_angle=90.0&amp;FingerJoint_style=rectangular&amp;FingerJoint_surroundingspaces=2.0&amp;FingerJoint_bottom_lip=0.0&amp;FingerJoint_edge_width=1.0&amp;FingerJoint_extra_length=0.0&amp;FingerJoint_finger=2.0&amp;FingerJoint_play=0.0&amp;FingerJoint_space=2.0&amp;FingerJoint_width=1.0&amp;Lid_handle=none&amp;Lid_style=none&amp;Lid_handle_height=8.0&amp;Lid_height=4.0&amp;Lid_play=0.1&amp;h=30.0&amp;hi=0.0&amp;outside=0&amp;sx=50*4&amp;sy=50*2&amp;layout=+%2C%3E+80.00mm%0D%0A+%7C+%2C%3E+75.00mm%0D%0A+%7C+%7C+%2C%3E+70.00mm%0D%0A+%7C+%7C+%7C+%2C%3E+48.00mm%0D%0A%2B-%2B-%2B-%2B-%2B%0D%0A%7C+%7C+%7C+%7C+%7C++145.00mm%0D%0A%2B-%2B-%2B-%2B-%2B%0D%0A%7C+%7C+%7C+%7C+%7C++22.50mm%0D%0A%2B-%2B-%2B-%2B-%2B%0D%0A&amp;thickness=5.5&amp;format=svg&amp;tabs=0.0&amp;qr_code=0&amp;debug=0&amp;labels=0&amp;labels=1&amp;reference=100&amp;inner_corners=loop&amp;burn=0.11&amp;language=en&amp;render=2
Url short: http://festi.info/boxes.py/TrayLayout?h=30.0&amp;outside=0&amp;sx=50*4&amp;sy=50*2&amp;layout=+%2C%3E+80.00mm%0D%0A+%7C+%2C%3E+75.00mm%0D%0A+%7C+%7C+%2C%3E+70.00mm%0D%0A+%7C+%7C+%7C+%2C%3E+48.00mm%0D%0A%2B-%2B-%2B-%2B-%2B%0D%0A%7C+%7C+%7C+%7C+%7C++145.00mm%0D%0A%2B-%2B-%2B-%2B-%2B%0D%0A%7C+%7C+%7C+%7C+%7C++22.50mm%0D%0A%2B-%2B-%2B-%2B-%2B%0D%0A&amp;thickness=5.5&amp;burn=0.11
SettingsUrl: http://festi.info/boxes.py/TrayLayout?FingerJoint_angle=90.0&amp;FingerJoint_style=rectangular&amp;FingerJoint_surroundingspaces=2.0&amp;FingerJoint_bottom_lip=0.0&amp;FingerJoint_edge_width=1.0&amp;FingerJoint_extra_length=0.0&amp;FingerJoint_finger=2.0&amp;FingerJoint_play=0.0&amp;FingerJoint_space=2.0&amp;FingerJoint_width=1.0&amp;Lid_handle=none&amp;Lid_style=none&amp;Lid_handle_height=8.0&amp;Lid_height=4.0&amp;Lid_play=0.1&amp;h=30.0&amp;hi=0.0&amp;outside=0&amp;sx=50*4&amp;sy=50*2&amp;layout=+%2C%3E+80.00mm%0D%0A+%7C+%2C%3E+75.00mm%0D%0A+%7C+%7C+%2C%3E+70.00mm%0D%0A+%7C+%7C+%7C+%2C%3E+48.00mm%0D%0A%2B-%2B-%2B-%2B-%2B%0D%0A%7C+%7C+%7C+%7C+%7C++145.00mm%0D%0A%2B-%2B-%2B-%2B-%2B%0D%0A%7C+%7C+%7C+%7C+%7C++22.50mm%0D%0A%2B-%2B-%2B-%2B-%2B%0D%0A&amp;thickness=5.5&amp;format=svg&amp;tabs=0.0&amp;qr_code=0&amp;debug=0&amp;labels=0&amp;labels=1&amp;reference=100&amp;inner_corners=loop&amp;burn=0.11&amp;language=en&amp;render=2
SettingsUrl short: http://festi.info/boxes.py/TrayLayout?h=30.0&amp;outside=0&amp;sx=50*4&amp;sy=50*2&amp;layout=+%2C%3E+80.00mm%0D%0A+%7C+%2C%3E+75.00mm%0D%0A+%7C+%7C+%2C%3E+70.00mm%0D%0A+%7C+%7C+%7C+%2C%3E+48.00mm%0D%0A%2B-%2B-%2B-%2B-%2B%0D%0A%7C+%7C+%7C+%7C+%7C++145.00mm%0D%0A%2B-%2B-%2B-%2B-%2B%0D%0A%7C+%7C+%7C+%7C+%7C++22.50mm%0D%0A%2B-%2B-%2B-%2B-%2B%0D%0A&amp;thickness=5.5&amp;burn=0.11
</dc:description>
</cc:Work></rdf:RDF></metadata>
<g id="p-0" style="fill:none;stroke-linecap:round;stroke-linejoin:round;">
  <path d="M 10.400 284.020 H 110.400 V 274.020 H 10.400 V 284.020 Z" stroke="rgb(0,0,0)" stroke-width="0.22" />
  <text transform="matrix( 1.000 0.000 0.000 1.000 60.400 275.020 )" style="font-family: sans-serif ; font-weight: normal; font-style: normal; fill: rgb(255,0,0)" font-size="8px" text-anchor="middle" dominant-baseline="hanging">100mm, burn:0.11mm</text>
</g>
<g id="p-1" style="fill:none;stroke-linecap:round;stroke-linejoin:round;">
  <path d="M 15.900 265.550 H 28.290 C 28.400 265.550 28.290 265.440 28.290 265.550 V 270.940 C 28.290 271.001 28.339 271.050 28.400 271.050 H 39.400 C 39.461 271.050 39.510 271.001 39.510 270.940 V 265.550 C 39.510 265.440 39.400 265.550 39.510 265.550 H 50.290 C 50.400 265.550 50.290 265.440 50.290 265.550 V 270.940 C 50.290 271.001 50.339 271.050 50.400 271.050 H 61.400 C 61.461 271.050 61.510 271.001 61.510 270.940 V 265.550 C 61.510 265.440 61.400 265.550 61.510 265.550 H 72.290 C 72.400 265.550 72.290 265.440 72.290 265.550 V 270.940 C 72.290 271.001 72.339 271.050 72.400 271.050 H 83.400 C 83.461 271.050 83.510 271.001 83.510 270.940 V 265.550 C 83.510 265.440 83.400 265.550 83.510 265.550 H 95.900 H 101.400 H 122.290 C 122.400 265.550 122.290 265.440 122.290 265.550 V 270.940 C 122.290 271.001 122.339 271.050 122.400 271.050 H 133.400 C 133.461 271.050 133.510 271.001 133.510 270.940 V 265.550 C 133.510 265.440 133.400 265.550 133.510 265.550 H 144.290 C 144.400 265.550 144.290 265.440 144.290 265.550 V 270.940 C 144.290 271.001 144.339 271.050 144.400 271.050 H 155.400 C 155.461 271.050 155.510 271.001 155.510 270.940 V 265.550 C 155.510 265.440 155.400 265.550 155.510 265.550 H 176.400 H 181.900 H 200.290 C 200.400 265.550 200.290 265.440 200.290 265.550 V 270.940 C 200.290 271.001 200.339 271.050 200.400 271.050 H 211.400 C 211.461 271.050 211.510 271.001 211.510 270.940 V 265.550 C 211.510 265.440 211.400 265.550 211.510 265.550 H 222.290 C 222.400 265.550 222.290 265.440 222.290 265.550 V 270.940 C 222.290 271.001 222.339 271.050 222.400 271.050 H 233.400 C 233.461 271.050 233.510 271.001 233.510 270.940 V 265.550 C 233.510 265.440 233.400 265.550 233.510 265.550 H 251.900 H 257.400 H 275.790 C 275.900 265.550 275.790 265.440 275.790 265.550 V 270.940 C 275.790 271.001 275.839 271.050 275.900 271.050 H 286.900 C 286.961 271.050 287.010 271.001 287.010 270.940 V 265.550 C 287.010 265.440 286.900 265.550 287.010 265.550 H 305.400 C 305.461 265.550 305.510 265.501 305.510 265.440 V 256.050 C 305.510 255.940 305.400 256.050 305.510 256.050 H 310.900 C 310.961 256.050 311.010 256.001 311.010 255.940 V 244.940 C 311.010 244.879 310.961 244.830 310.900 244.830 H 305.510 C 305.400 244.830 305.510 244.940 305.510 244.830 V 235.440 C 305.510 235.379 305.461 235.330 305.400 235.330 H 15.900 C 15.839 235.330 15.790 235.379 15.790 235.440 V 244.830 C 15.790 244.940 15.900 244.830 15.790 244.830 H 10.400 C 10.339 244.830 10.290 244.879 10.290 244.940 V 255.940 C 10.290 256.001 10.339 256.050 10.400 256.050 H 15.790 C 15.900 256.050 15.790 255.940 15.790 256.050 V 265.440 C 15.790 265.501 15.839 265.550 15.900 265.550 Z" stroke="rgb(0,0,0)" stroke-width="0.22" />
  <path d="M 101.290 250.440 V 255.830 C 101.290 255.940 101.400 255.830 101.290 255.830 H 96.010 C 95.900 255.830 96.010 255.940 96.010 255.830 V 245.050 C 96.010 244.940 95.900 245.050 96.010 245.050 H 101.290 C 101.400 245.050 101.290 244.940 101.290 245.050 V 250.440 Z" stroke="rgb(0,0,255)" stroke-width="0.22" />
  <path d="M 181.790 250.440 V 255.830 C 181.790 255.940 181.900 255.830 181.790 255.830 H 176.510 C 176.400 255.830 176.510 255.940 176.510 255.830 V 245.050 C 176.510 244.940 176.400 245.050 176.510 245.050 H 181.790 C 181.900 245.050 181.790 244.940 181.790 245.050 V 250.440 Z" stroke="rgb(0,0,255)" stroke-width="0.22" />
  <path d="M 257.290 250.440 V 255.830 C 257.290 255.940 257.400 255.830 257.290 255.830 H 252.010 C 251.900 255.830 252.010 255.940 252.010 255.830 V 245.050 C 252.010 244.940 251.900 245.050 252.010 245.050 H 257.290 C 257.400 245.050 257.290 244.940 257.290 245.050 V 250.440 Z" stroke="rgb(0,0,255)" stroke-width="0.22" />
</g>
<g id="p-2" style="fill:none;stroke-linecap:round;stroke-linejoin:round;">
  <path d="M 319.370 265.550 H 331.760 C 331.870 265.550 331.760 265.440 331.760 265.550 V 270.940 C 331.760 271.001 331.809 271.050 331.870 271.050 H 342.870 C 342.931 271.050 342.980 271.001 342.980 270.940 V 265.550 C 342.980 265.440 342.870 265.550 342.980 265.550 H 353.760 C 353.870 265.550 353.760 265.440 353.760 265.550 V 270.940 C 353.760 271.001 353.809 271.050 353.870 271.050 H 364.870 C 364.931 271.050 364.980 271.001 364.980 270.940 V 265.550 C 364.980 265.440 364.870 265.550 364.980 265.550 H 375.760 C 375.870 265.550 375.760 265.440 375.760 265.550 V 270.940 C 375.760 271.001 375.809 271.050 375.870 271.050 H 386.870 C 386.931 271.050 386.980 271.001 386.980 270.940 V 265.550 C 386.980 265.440 386.870 265.550 386.980 265.550 H 399.370 C 399.431 265.550 399.480 265.501 399.480 265.440 V 250.550 C 399.480 250.440 399.370 250.550 399.480 250.550 H 404.760 C 404.870 250.550 404.760 250.440 404.760 250.550 V 265.440 C 404.760 265.501 404.809 265.550 404.870 265.550 H 425.760 C 425.870 265.550 425.760 265.440 425.760 265.550 V 270.940 C 425.760 271.001 425.809 271.050 425.870 271.050 H 436.870 C 436.931 271.050 436.980 271.001 436.980 270.940 V 265.550 C 436.980 265.440 436.870 265.550 436.980 265.550 H 447.760 C 447.870 265.550 447.760 265.440 447.760 265.550 V 270.940 C 447.760 271.001 447.809 271.050 447.870 271.050 H 458.870 C 458.931 271.050 458.980 271.001 458.980 270.940 V 265.550 C 458.980 265.440 458.870 265.550 458.980 265.550 H 479.870 C 479.931 265.550 479.980 265.501 479.980 265.440 V 250.550 C 479.980 250.440 479.870 250.550 479.980 250.550 H 485.260 C 485.370 250.550 485.260 250.440 485.260 250.550 V 265.440 C 485.260 265.501 485.309 265.550 485.370 265.550 H 503.760 C 503.870 265.550 503.760 265.440 503.760 265.550 V 270.940 C 503.760 271.001 503.809 271.050 503.870 271.050 H 514.870 C 514.931 271.050 514.980 271.001 514.980 270.940 V 265.550 C 514.980 265.440 514.870 265.550 514.980 265.550 H 525.760 C 525.870 265.550 525.760 265.440 525.760 265.550 V 270.940 C 525.760 271.001 525.809 271.050 525.870 271.050 H 536.870 C 536.931 271.050 536.980 271.001 536.980 270.940 V 265.550 C 536.980 265.440 536.870 265.550 536.980 265.550 H 555.370 C 555.431 265.550 555.480 265.501 555.480 265.440 V 250.550 C 555.480 250.440 555.370 250.550 555.480 250.550 H 560.760 C 560.870 250.550 560.760 250.440 560.760 250.550 V 265.440 C 560.760 265.501 560.809 265.550 560.870 265.550 H 579.260 C 579.370 265.550 579.260 265.440 579.260 265.550 V 270.940 C 579.260 271.001 579.309 271.050 579.370 271.050 H 590.370 C 590.431 271.050 590.480 271.001 590.480 270.940 V 265.550 C 590.480 265.440 590.370 265.550 590.480 265.550 H 608.870 C 608.931 265.550 608.980 265.501 608.980 265.440 V 256.050 C 608.980 255.940 608.870 256.050 608.980 256.050 H 614.370 C 614.431 256.050 614.480 256.001 614.480 255.940 V 244.940 C 614.480 244.879 614.431 244.830 614.370 244.830 H 608.980 C 608.870 244.830 608.980 244.940 608.980 244.830 V 235.440 C 608.980 235.379 608.931 235.330 608.870 235.330 H 319.370 C 319.309 235.330 319.260 235.379 319.260 235.440 V 244.830 C 319.260 244.940 319.370 244.830 319.260 244.830 H 313.870 C 313.809 244.830 313.760 244.879 313.760 244.940 V 255.940 C 313.760 256.001 313.809 256.050 313.870 256.050 H 319.260 C 319.370 256.050 319.260 255.940 319.260 256.050 V 265.440 C 319.260 265.501 319.309 265.550 319.370 265.550 Z" stroke="rgb(0,0,0)" stroke-width="0.22" />
</g>
<g id="p-3" style="fill:none;stroke-linecap:round;stroke-linejoin:round;">
  <path d="M 622.840 265.550 H 635.230 C 635.340 265.550 635.230 265.440 635.230 265.550 V 270.940 C 635.230 271.001 635.279 271.050 635.340 271.050 H 646.340 C 646.401 271.050 646.450 271.001 646.450 270.940 V 265.550 C 646.450 265.440 646.340 265.550 646.450 265.550 H 657.230 C 657.340 265.550 657.230 265.440 657.230 265.550 V 270.940 C 657.230 271.001 657.279 271.050 657.340 271.050 H 668.340 C 668.401 271.050 668.450 271.001 668.450 270.940 V 265.550 C 668.450 265.440 668.340 265.550 668.450 265.550 H 679.230 C 679.340 265.550 679.230 265.440 679.230 265.550 V 270.940 C 679.230 271.001 679.279 271.050 679.340 271.050 H 690.340 C 690.401 271.050 690.450 271.001 690.450 270.940 V 265.550 C 690.450 265.440 690.340 265.550 690.450 265.550 H 702.840 H 708.340 H 729.230 C 729.340 265.550 729.230 265.440 729.230 265.550 V 270.940 C 729.230 271.001 729.279 271.050 729.340 271.050 H 740.340 C 740.401 271.050 740.450 271.001 740.450 270.940 V 265.550 C 740.450 265.440 740.340 265.550 740.450 265.550 H 751.230 C 751.340 265.550 751.230 265.440 751.230 265.550 V 270.940 C 751.230 271.001 751.279 271.050 751.340 271.050 H 762.340 C 762.401 271.050 762.450 271.001 762.450 270.940 V 265.550 C 762.450 265.440 762.340 265.550 762.450 265.550 H 783.340 H 788.840 H 807.230 C 807.340 265.550 807.230 265.440 807.230 265.550 V 270.940 C 807.230 271.001 807.279 271.050 807.340 271.050 H 818.340 C 818.401 271.050 818.450 271.001 818.450 270.940 V 265.550 C 818.450 265.440 818.340 265.550 818.450 265.550 H 829.230 C 829.340 265.550 829.230 265.440 829.230 265.550 V 270.940 C 829.230 271.001 829.279 271.050 829.340 271.050 H 840.340 C 840.401 271.050 840.450 271.001 840.450 270.940 V 265.550 C 840.450 265.440 840.340 265.550 840.450 265.550 H 858.840 H 864.340 H 882.730 C 882.840 265.550 882.730 265.440 882.730 265.550 V 270.940 C 882.730 271.001 882.779 271.050 882.840 271.050 H 893.840 C 893.901 271.050 893.950 271.001 893.950 270.940 V 265.550 C 893.950 265.440 893.840 265.550 893.950 265.550 H 912.340 C 912.401 265.550 912.450 265.501 912.450 265.440 V 256.050 C 912.450 255.940 912.340 256.050 912.450 256.050 H 917.840 C 917.901 256.050 917.950 256.001 917.950 255.940 V 244.940 C 917.950 244.879 917.901 244.830 917.840 244.830 H 912.450 C 912.340 244.830 912.450 244.940 912.450 244.830 V 235.440 C 912.450 235.379 912.401 235.330 912.340 235.330 H 622.840 C 622.779 235.330 622.730 235.379 622.730 235.440 V 244.830 C 622.730 244.940 622.840 244.830 622.730 244.830 H 617.340 C 617.279 244.830 617.230 244.879 617.230 244.940 V 255.940 C 617.230 256.001 617.279 256.050 617.340 256.050 H 622.730 C 622.840 256.050 622.730 255.940 622.730 256.050 V 265.440 C 622.730 265.501 622.779 265.550 622.840 265.550 Z" stroke="rgb(0,0,0)" stroke-width="0.22" />
  <path d="M 708.230 250.440 V 255.830 C 708.230 255.940 708.340 255.830 708.230 255.830 H 702.950 C 702.840 255.830 702.950 255.940 702.950 255.830 V 245.050 C 702.950 244.940 702.840 245.050 702.950 245.050 H 708.230 C 708.340 245.050 708.230 244.940 708.230 245.050 V 250.440 Z" stroke="rgb(0,0,255)" stroke-width="0.22" />
  <path d="M 788.730 250.440 V 255.830 C 788.730 255.940 788.840 255.830 788.730 255.830 H 783.450 C 783.340 255.830 783.450 255.940 783.450 255.830 V 245.050 C 783.450 244.940 783.340 245.050 783.450 245.050 H 788.730 C 788.840 245.050 788.730 244.940 788.730 245.050 V 250.440 Z" stroke="rgb(0,0,255)" stroke-width="0.22" />
  <path d="M 864.230 250.440 V 255.830 C 864.230 255.940 864.340 255.830 864.230 255.830 H 858.950 C 858.840 255.830 858.950 255.940 858.950 255.830 V 245.050 C 858.950 244.940 858.840 245.050 858.950 245.050 H 864.230 C 864.340 245.050 864.230 244.940 864.230 245.050 V 250.440 Z" stroke="rgb(0,0,255)" stroke-width="0.22" />
</g>
<g id="p-4" style="fill:none;stroke-linecap:round;stroke-linejoin:round;">
  <path d="M 15.900 227.080 H 27.790 C 27.900 227.080 27.790 226.970 27.790 227.080 V 232.470 C 27.790 232.531 27.839 232.580 27.900 232.580 H 38.900 C 38.961 232.580 39.010 232.531 39.010 232.470 V 227.080 C 39.010 226.970 38.900 227.080 39.010 227.080 H 49.790 C 49.900 227.080 49.790 226.970 49.790 227.080 V 232.470 C 49.790 232.531 49.839 232.580 49.900 232.580 H 60.900 C 60.961 232.580 61.010 232.531 61.010 232.470 V 227.080 C 61.010 226.970 60.900 227.080 61.010 227.080 H 71.790 C 71.900 227.080 71.790 226.970 71.790 227.080 V 232.470 C 71.790 232.531 71.839 232.580 71.900 232.580 H 82.900 C 82.961 232.580 83.010 232.531 83.010 232.470 V 227.080 C 83.010 226.970 82.900 227.080 83.010 227.080 H 93.790 C 93.900 227.080 93.790 226.970 93.790 227.080 V 232.470 C 93.790 232.531 93.839 232.580 93.900 232.580 H 104.900 C 104.961 232.580 105.010 232.531 105.010 232.470 V 227.080 C 105.010 226.970 104.900 227.080 105.010 227.080 H 115.790 C 115.900 227.080 115.790 226.970 115.790 227.080 V 232.470 C 115.790 232.531 115.839 232.580 115.900 232.580 H 126.900 C 126.961 232.580 127.010 232.531 127.010 232.470 V 227.080 C 127.010 226.970 126.900 227.080 127.010 227.080 H 137.790 C 137.900 227.080 137.790 226.970 137.790 227.080 V 232.470 C 137.790 232.531 137.839 232.580 137.900 232.580 H 148.900 C 148.961 232.580 149.010 232.531 149.010 232.470 V 227.080 C 149.010 226.970 148.900 227.080 149.010 227.080 H 160.900 H 166.400 H 172.040 C 172.150 227.080 172.040 226.970 172.040 227.080 V 232.470 C 172.040 232.531 172.089 232.580 172.150 232.580 H 183.150 C 183.211 232.580 183.260 232.531 183.260 232.470 V 227.080 C 183.260 226.970 183.150 227.080 183.260 227.080 H 188.900 H 194.400 C 194.461 227.080 194.510 227.031 194.510 226.970 V 217.470 C 194.510 217.409 194.461 217.360 194.400 217.360 H 189.010 C 188.900 217.360 189.010 217.470 189.010 217.360 V 206.580 C 189.010 206.470 188.900 206.580 189.010 206.580 H 194.400 C 194.461 206.580 194.510 206.531 194.510 206.470 V 196.970 C 194.510 196.909 194.461 196.860 194.400 196.860 H 188.900 H 166.400 H 160.900 H 15.900 H 10.400 C 10.339 196.860 10.290 196.909 10.290 196.970 V 206.470 C 10.290 206.531 10.339 206.580 10.400 206.580 H 15.790 C 15.900 206.580 15.790 206.470 15.790 206.580 V 217.360 C 15.790 217.470 15.900 217.360 15.790 217.360 H 10.400 C 10.339 217.360 10.290 217.409 10.290 217.470 V 226.970 C 10.290 227.031 10.339 227.080 10.400 227.080 H 15.900 Z" stroke="rgb(0,0,0)" stroke-width="0.22" />
  <path d="M 166.290 211.970 V 217.360 C 166.290 217.470 166.400 217.360 166.290 217.360 H 161.010 C 160.900 217.360 161.010 217.470 161.010 217.360 V 206.580 C 161.010 206.470 160.900 206.580 161.010 206.580 H 166.290 C 166.400 206.580 166.290 206.470 166.290 206.580 V 211.970 Z" stroke="rgb(0,0,255)" stroke-width="0.22" />
</g>
<g id="p-5" style="fill:none;stroke-linecap:round;stroke-linejoin:round;">
  <path d="M 202.870 227.080 H 214.760 C 214.870 227.080 214.760 226.970 214.760 227.080 V 232.470 C 214.760 232.531 214.809 232.580 214.870 232.580 H 225.870 C 225.931 232.580 225.980 232.531 225.980 232.470 V 227.080 C 225.980 226.970 225.870 227.080 225.980 227.080 H 236.760 C 236.870 227.080 236.760 226.970 236.760 227.080 V 232.470 C 236.760 232.531 236.809 232.580 236.870 232.580 H 247.870 C 247.931 232.580 247.980 232.531 247.980 232.470 V 227.080 C 247.980 226.970 247.870 227.080 247.980 227.080 H 258.760 C 258.870 227.080 258.760 226.970 258.760 227.080 V 232.470 C 258.760 232.531 258.809 232.580 258.870 232.580 H 269.870 C 269.931 232.580 269.980 232.531 269.980 232.470 V 227.080 C 269.980 226.970 269.870 227.080 269.980 227.080 H 280.760 C 280.870 227.080 280.760 226.970 280.760 227.080 V 232.470 C 280.760 232.531 280.809 232.580 280.870 232.580 H 291.870 C 291.931 232.580 291.980 232.531 291.980 232.470 V 227.080 C 291.980 226.970 291.870 227.080 291.980 227.080 H 302.760 C 302.870 227.080 302.760 226.970 302.760 227.080 V 232.470 C 302.760 232.531 302.809 232.580 302.870 232.580 H 313.870 C 313.931 232.580 313.980 232.531 313.980 232.470 V 227.080 C 313.980 226.970 313.870 227.080 313.980 227.080 H 324.760 C 324.870 227.080 324.760 226.970 324.760 227.080 V 232.470 C 324.760 232.531 324.809 232.580 324.870 232.580 H 335.870 C 335.931 232.580 335.980 232.531 335.980 232.470 V 227.080 C 335.980 226.970 335.870 227.080 335.980 227.080 H 347.870 H 353.370 H 359.010 C 359.120 227.080 359.010 226.970 359.010 227.080 V 232.470 C 359.010 232.531 359.059 232.580 359.120 232.580 H 370.120 C 370.181 232.580 370.230 232.531 370.230 232.470 V 227.080 C 370.230 226.970 370.120 227.080 370.230 227.080 H 375.870 C 375.931 227.080 375.980 227.031 375.980 226.970 V 217.580 C 375.980 217.470 375.870 217.580 375.980 217.580 H 381.370 C 381.431 217.580 381.480 217.531 381.480 217.470 V 206.470 C 381.480 206.409 381.431 206.360 381.370 206.360 H 375.980 C 375.870 206.360 375.980 206.470 375.980 206.360 V 196.970 C 375.980 196.909 375.931 196.860 375.870 196.860 H 353.370 C 353.309 196.860 353.260 196.909 353.260 196.970 V 211.860 C 353.260 211.970 353.370 211.860 353.260 211.860 H 347.980 C 347.870 211.860 347.980 211.970 347.980 211.860 V 196.970 C 347.980 196.909 347.931 196.860 347.870 196.860 H 202.870 C 202.809 196.860 202.760 196.909 202.760 196.970 V 206.360 C 202.760 206.470 202.870 206.360 202.760 206.360 H 197.370 C 197.309 206.360 197.260 206.409 197.260 206.470 V 217.470 C 197.260 217.531 197.309 217.580 197.370 217.580 H 202.760 C 202.870 217.580 202.760 217.470 202.760 217.580 V 226.970 C 202.760 227.031 202.809 227.080 202.870 227.080 Z" stroke="rgb(0,0,0)" stroke-width="0.22" />
</g>
<g id="p-6" style="fill:none;stroke-linecap:round;stroke-linejoin:round;">
  <path d="M 389.840 227.080 H 401.730 C 401.840 227.080 401.730 226.970 401.730 227.080 V 232.470 C 401.730 232.531 401.779 232.580 401.840 232.580 H 412.840 C 412.901 232.580 412.950 232.531 412.950 232.470 V 227.080 C 412.950 226.970 412.840 227.080 412.950 227.080 H 423.730 C 423.840 227.080 423.730 226.970 423.730 227.080 V 232.470 C 423.730 232.531 423.779 232.580 423.840 232.580 H 434.840 C 434.901 232.580 434.950 232.531 434.950 232.470 V 227.080 C 434.950 226.970 434.840 227.080 434.950 227.080 H 445.730 C 445.840 227.080 445.730 226.970 445.730 227.080 V 232.470 C 445.730 232.531 445.779 232.580 445.840 232.580 H 456.840 C 456.901 232.580 456.950 232.531 456.950 232.470 V 227.080 C 456.950 226.970 456.840 227.080 456.950 227.080 H 467.730 C 467.840 227.080 467.730 226.970 467.730 227.080 V 232.470 C 467.730 232.531 467.779 232.580 467.840 232.580 H 478.840 C 478.901 232.580 478.950 232.531 478.950 232.470 V 227.080 C 478.950 226.970 478.840 227.080 478.950 227.080 H 489.730 C 489.840 227.080 489.730 226.970 489.730 227.080 V 232.470 C 489.730 232.531 489.779 232.580 489.840 232.580 H 500.840 C 500.901 232.580 500.950 232.531 500.950 232.470 V 227.080 C 500.950 226.970 500.840 227.080 500.950 227.080 H 511.730 C 511.840 227.080 511.730 226.970 511.730 227.080 V 232.470 C 511.730 232.531 511.779 232.580 511.840 232.580 H 522.840 C 522.901 232.580 522.950 232.531 522.950 232.470 V 227.080 C 522.950 226.970 522.840 227.080 522.950 227.080 H 534.840 H 540.340 H 545.980 C 546.090 227.080 545.980 226.970 545.980 227.080 V 232.470 C 545.980 232.531 546.029 232.580 546.090 232.580 H 557.090 C 557.151 232.580 557.200 232.531 557.200 232.470 V 227.080 C 557.200 226.970 557.090 227.080 557.200 227.080 H 562.840 C 562.901 227.080 562.950 227.031 562.950 226.970 V 217.580 C 562.950 217.470 562.840 217.580 562.950 217.580 H 568.340 C 568.401 217.580 568.450 217.531 568.450 217.470 V 206.470 C 568.450 206.409 568.401 206.360 568.340 206.360 H 562.950 C 562.840 206.360 562.950 206.470 562.950 206.360 V 196.970 C 562.950 196.909 562.901 196.860 562.840 196.860 H 540.340 C 540.279 196.860 540.230 196.909 540.230 196.970 V 211.860 C 540.230 211.970 540.340 211.860 540.230 211.860 H 534.950 C 534.840 211.860 534.950 211.970 534.950 211.860 V 196.970 C 534.950 196.909 534.901 196.860 534.840 196.860 H 389.840 C 389.779 196.860 389.730 196.909 389.730 196.970 V 206.360 C 389.730 206.470 389.840 206.360 389.730 206.360 H 384.340 C 384.279 206.360 384.230 206.409 384.230 206.470 V 217.470 C 384.230 217.531 384.279 217.580 384.340 217.580 H 389.730 C 389.840 217.580 389.730 217.470 389.730 217.580 V 226.970 C 389.730 227.031 389.779 227.080 389.840 227.080 Z" stroke="rgb(0,0,0)" stroke-width="0.22" />
</g>
<g id="p-7" style="fill:none;stroke-linecap:round;stroke-linejoin:round;">
  <path d="M 576.810 227.080 H 588.700 C 588.810 227.080 588.700 226.970 588.700 227.080 V 232.470 C 588.700 232.531 588.749 232.580 588.810 232.580 H 599.810 C 599.871 232.580 599.920 232.531 599.920 232.470 V 227.080 C 599.920 226.970 599.810 227.080 599.920 227.080 H 610.700 C 610.810 227.080 610.700 226.970 610.700 227.080 V 232.470 C 610.700 232.531 610.749 232.580 610.810 232.580 H 621.810 C 621.871 232.580 621.920 232.531 621.920 232.470 V 227.080 C 621.920 226.970 621.810 227.080 621.920 227.080 H 632.700 C 632.810 227.080 632.700 226.970 632.700 227.080 V 232.470 C 632.700 232.531 632.749 232.580 632.810 232.580 H 643.810 C 643.871 232.580 643.920 232.531 643.920 232.470 V 227.080 C 643.920 226.970 643.810 227.080 643.920 227.080 H 654.700 C 654.810 227.080 654.700 226.970 654.700 227.080 V 232.470 C 654.700 232.531 654.749 232.580 654.810 232.580 H 665.810 C 665.871 232.580 665.920 232.531 665.920 232.470 V 227.080 C 665.920 226.970 665.810 227.080 665.920 227.080 H 676.700 C 676.810 227.080 676.700 226.970 676.700 227.080 V 232.470 C 676.700 232.531 676.749 232.580 676.810 232.580 H 687.810 C 687.871 232.580 687.920 232.531 687.920 232.470 V 227.080 C 687.920 226.970 687.810 227.080 687.920 227.080 H 698.700 C 698.810 227.080 698.700 226.970 698.700 227.080 V 232.470 C 698.700 232.531 698.749 232.580 698.810 232.580 H 709.810 C 709.871 232.580 709.920 232.531 709.920 232.470 V 227.080 C 709.920 226.970 709.810 227.080 709.920 227.080 H 721.810 H 727.310 H 732.950 C 733.060 227.080 732.950 226.970 732.950 227.080 V 232.470 C 732.950 232.531 732.999 232.580 733.060 232.580 H 744.060 C 744.121 232.580 744.170 232.531 744.170 232.470 V 227.080 C 744.170 226.970 744.060 227.080 744.170 227.080 H 749.810 C 749.871 227.080 749.920 227.031 749.920 226.970 V 217.580 C 749.920 217.470 749.810 217.580 749.920 217.580 H 755.310 C 755.371 217.580 755.420 217.531 755.420 217.470 V 206.470 C 755.420 206.409 755.371 206.360 755.310 206.360 H 749.920 C 749.810 206.360 749.920 206.470 749.920 206.360 V 196.970 C 749.920 196.909 749.871 196.860 749.810 196.860 H 727.310 C 727.249 196.860 727.200 196.909 727.200 196.970 V 211.860 C 727.200 211.970 727.310 211.860 727.200 211.860 H 721.920 C 721.810 211.860 721.920 211.970 721.920 211.860 V 196.970 C 721.920 196.909 721.871 196.860 721.810 196.860 H 576.810 C 576.749 196.860 576.700 196.909 576.700 196.970 V 206.360 C 576.700 206.470 576.810 206.360 576.700 206.360 H 571.310 C 571.249 206.360 571.200 206.409 571.200 206.470 V 217.470 C 571.200 217.531 571.249 217.580 571.310 217.580 H 576.700 C 576.810 217.580 576.700 217.470 576.700 217.580 V 226.970 C 576.700 227.031 576.749 227.080 576.810 227.080 Z" stroke="rgb(0,0,0)" stroke-width="0.22" />
</g>
<g id="p-8" style="fill:none;stroke-linecap:round;stroke-linejoin:round;">
  <path d="M 763.780 227.080 H 775.670 C 775.780 227.080 775.670 226.970 775.670 227.080 V 232.470 C 775.670 232.531 775.719 232.580 775.780 232.580 H 786.780 C 786.841 232.580 786.890 232.531 786.890 232.470 V 227.080 C 786.890 226.970 786.780 227.080 786.890 227.080 H 797.670 C 797.780 227.080 797.670 226.970 797.670 227.080 V 232.470 C 797.670 232.531 797.719 232.580 797.780 232.580 H 808.780 C 808.841 232.580 808.890 232.531 808.890 232.470 V 227.080 C 808.890 226.970 808.780 227.080 808.890 227.080 H 819.670 C 819.780 227.080 819.670 226.970 819.670 227.080 V 232.470 C 819.670 232.531 819.719 232.580 819.780 232.580 H 830.780 C 830.841 232.580 830.890 232.531 830.890 232.470 V 227.080 C 830.890 226.970 830.780 227.080 830.890 227.080 H 841.670 C 841.780 227.080 841.670 226.970 841.670 227.080 V 232.470 C 841.670 232.531 841.719 232.580 841.780 232.580 H 852.780 C 852.841 232.580 852.890 232.531 852.890 232.470 V 227.080 C 852.890 226.970 852.780 227.080 852.890 227.080 H 863.670 C 863.780 227.080 863.670 226.970 863.670 227.080 V 232.470 C 863.670 232.531 863.719 232.580 863.780 232.580 H 874.780 C 874.841 232.580 874.890 232.531 874.890 232.470 V 227.080 C 874.890 226.970 874.780 227.080 874.890 227.080 H 885.670 C 885.780 227.080 885.670 226.970 885.670 227.080 V 232.470 C 885.670 232.531 885.719 232.580 885.780 232.580 H 896.780 C 896.841 232.580 896.890 232.531 896.890 232.470 V 227.080 C 896.890 226.970 896.780 227.080 896.890 227.080 H 908.780 H 914.280 H 919.920 C 920.030 227.080 919.920 226.970 919.920 227.080 V 232.470 C 919.920 232.531 919.969 232.580 920.030 232.580 H 931.030 C 931.091 232.580 931.140 232.531 931.140 232.470 V 227.080 C 931.140 226.970 931.030 227.080 931.140 227.080 H 936.780 H 942.280 C 942.341 227.080 942.390 227.031 942.390 226.970 V 217.470 C 942.390 217.409 942.341 217.360 942.280 217.360 H 936.890 C 936.780 217.360 936.890 217.470 936.890 217.360 V 206.580 C 936.890 206.470 936.780 206.580 936.890 206.580 H 942.280 C 942.341 206.580 942.390 206.531 942.390 206.470 V 196.970 C 942.390 196.909 942.341 196.860 942.280 196.860 H 936.780 H 914.280 H 908.780 H 763.780 H 758.280 C 758.219 196.860 758.170 196.909 758.170 196.970 V 206.470 C 758.170 206.531 758.219 206.580 758.280 206.580 H 763.670 C 763.780 206.580 763.670 206.470 763.670 206.580 V 217.360 C 763.670 217.470 763.780 217.360 763.670 217.360 H 758.280 C 758.219 217.360 758.170 217.409 758.170 217.470 V 226.970 C 758.170 227.031 758.219 227.080 758.280 227.080 H 763.780 Z" stroke="rgb(0,0,0)" stroke-width="0.22" />
  <path d="M 914.170 211.970 V 217.360 C 914.170 217.470 914.280 217.360 914.170 217.360 H 908.890 C 908.780 217.360 908.890 217.470 908.890 217.360 V 206.580 C 908.890 206.470 908.780 206.580 908.890 206.580 H 914.170 C 914.280 206.580 914.170 206.470 914.170 206.580 V 211.970 Z" stroke="rgb(0,0,255)" stroke-width="0.22" />
</g>
<g id="p-9" style="fill:none;stroke-linecap:round;stroke-linejoin:round;">
  <path d="M 15.900 194.220 H 28.400 C 28.461 194.220 28.510 194.171 28.510 194.110 V 188.720 C 28.510 188.610 28.400 188.720 28.510 188.720 H 39.290 C 39.400 188.720 39.290 188.610 39.290 188.720 V 194.110 C 39.290 194.171 39.339 194.220 39.400 194.220 H 50.400 C 50.461 194.220 50.510 194.171 50.510 194.110 V 188.720 C 50.510 188.610 50.400 188.720 50.510 188.720 H 61.290 C 61.400 188.720 61.290 188.610 61.290 188.720 V 194.110 C 61.290 194.171 61.339 194.220 61.400 194.220 H 72.400 C 72.461 194.220 72.510 194.171 72.510 194.110 V 188.720 C 72.510 188.610 72.400 188.720 72.510 188.720 H 83.290 C 83.400 188.720 83.290 188.610 83.290 188.720 V 194.110 C 83.290 194.171 83.339 194.220 83.400 194.220 H 95.900 M 10.400 194.220 H 15.900 M 101.400 194.220 H 122.400 C 122.461 194.220 122.510 194.171 122.510 194.110 V 188.720 C 122.510 188.610 122.400 188.720 122.510 188.720 H 133.290 C 133.400 188.720 133.290 188.610 133.290 188.720 V 194.110 C 133.290 194.171 133.339 194.220 133.400 194.220 H 144.400 C 144.461 194.220 144.510 194.171 144.510 194.110 V 188.720 C 144.510 188.610 144.400 188.720 144.510 188.720 H 155.290 C 155.400 188.720 155.290 188.610 155.290 188.720 V 194.110 C 155.290 194.171 155.339 194.220 155.400 194.220 H 176.400 M 95.900 194.220 H 101.400 M 181.900 194.220 H 200.400 C 200.461 194.220 200.510 194.171 200.510 194.110 V 188.720 C 200.510 188.610 200.400 188.720 200.510 188.720 H 211.290 C 211.400 188.720 211.290 188.610 211.290 188.720 V 194.110 C 211.290 194.171 211.339 194.220 211.400 194.220 H 222.400 C 222.461 194.220 222.510 194.171 222.510 194.110 V 188.720 C 222.510 188.610 222.400 188.720 222.510 188.720 H 233.290 C 233.400 188.720 233.290 188.610 233.290 188.720 V 194.110 C 233.290 194.171 233.339 194.220 233.400 194.220 H 251.900 M 176.400 194.220 H 181.900 M 257.400 194.220 H 275.900 C 275.961 194.220 276.010 194.171 276.010 194.110 V 188.720 C 276.010 188.610 275.900 188.720 276.010 188.720 H 286.790 C 286.900 188.720 286.790 188.610 286.790 188.720 V 194.110 C 286.790 194.171 286.839 194.220 286.900 194.220 H 305.400 M 251.900 194.220 H 257.400 M 305.400 194.220 H 310.900" stroke="rgb(0,0,0)" stroke-width="0.22" />
  <path d="M 33.900 166.000 H 28.510 C 28.400 166.000 28.510 166.110 28.510 166.000 V 160.720 C 28.510 160.610 28.400 160.720 28.510 160.720 H 39.290 C 39.400 160.720 39.290 160.610 39.290 160.720 V 166.000 C 39.290 166.110 39.400 166.000 39.290 166.000 H 33.900 Z" stroke="rgb(0,0,255)" stroke-width="0.22" />
  <path d="M 55.900 166.000 H 50.510 C 50.400 166.000 50.510 166.110 50.510 166.000 V 160.720 C 50.510 160.610 50.400 160.720 50.510 160.720 H 61.290 C 61.400 160.720 61.290 160.610 61.290 160.720 V 166.000 C 61.290 166.110 61.400 166.000 61.290 166.000 H 55.900 Z" stroke="rgb(0,0,255)" stroke-width="0.22" />
  <path d="M 77.900 166.000 H 72.510 C 72.400 166.000 72.510 166.110 72.510 166.000 V 160.720 C 72.510 160.610 72.400 160.720 72.510 160.720 H 83.290 C 83.400 160.720 83.290 160.610 83.290 160.720 V 166.000 C 83.290 166.110 83.400 166.000 83.290 166.000 H 77.900 Z" stroke="rgb(0,0,255)" stroke-width="0.22" />
  <path d="M 127.900 166.000 H 122.510 C 122.400 166.000 122.510 166.110 122.510 166.000 V 160.720 C 122.510 160.610 122.400 160.720 122.510 160.720 H 133.290 C 133.400 160.720 133.290 160.610 133.290 160.720 V 166.000 C 133.290 166.110 133.400 166.000 133.290 166.000 H 127.900 Z" stroke="rgb(0,0,255)" stroke-width="0.22" />
  <path d="M 149.900 166.000 H 144.510 C 144.400 166.000 144.510 166.110 144.510 166.000 V 160.720 C 144.510 160.610 144.400 160.720 144.510 160.720 H 155.290 C 155.400 160.720 155.290 160.610 155.290 160.720 V 166.000 C 155.290 166.110 155.400 166.000 155.290 166.000 H 149.900 Z" stroke="rgb(0,0,255)" stroke-width="0.22" />
  <path d="M 205.900 166.000 H 200.510 C 200.400 166.000 200.510 166.110 200.510 166.000 V 160.720 C 200.510 160.610 200.400 160.720 200.510 160.720 H 211.290 C 211.400 160.720 211.290 160.610 211.290 160.720 V 166.000 C 211.290 166.110 211.400 166.000 211.290 166.000 H 205.900 Z" stroke="rgb(0,0,255)" stroke-width="0.22" />
  <path d="M 227.900 166.000 H 222.510 C 222.400 166.000 222.510 166.110 222.510 166.000 V 160.720 C 222.510 160.610 222.400 160.720 222.510 160.720 H 233.290 C 233.400 160.720 233.290 160.610 233.290 160.720 V 166.000 C 233.290 166.110 233.400 166.000 233.290 166.000 H 227.900 Z" stroke="rgb(0,0,255)" stroke-width="0.22" />
  <path d="M 281.400 166.000 H 276.010 C 275.900 166.000 276.010 166.110 276.010 166.000 V 160.720 C 276.010 160.610 275.900 160.720 276.010 160.720 H 286.790 C 286.900 160.720 286.790 160.610 286.790 160.720 V 166.000 C 286.790 166.110 286.900 166.000 286.790 166.000 H 281.400 Z" stroke="rgb(0,0,255)" stroke-width="0.22" />
  <path d="M 95.900 10.000 H 83.400 C 83.339 10.000 83.290 10.049 83.290 10.110 V 15.500 C 83.290 15.610 83.400 15.500 83.290 15.500 H 72.510 C 72.400 15.500 72.510 15.610 72.510 15.500 V 10.110 C 72.510 10.049 72.461 10.000 72.400 10.000 H 61.400 C 61.339 10.000 61.290 10.049 61.290 10.110 V 15.500 C 61.290 15.610 61.400 15.500 61.290 15.500 H 50.510 C 50.400 15.500 50.510 15.610 50.510 15.500 V 10.110 C 50.510 10.049 50.461 10.000 50.400 10.000 H 39.400 C 39.339 10.000 39.290 10.049 39.290 10.110 V 15.500 C 39.290 15.610 39.400 15.500 39.290 15.500 H 28.510 C 28.400 15.500 28.510 15.610 28.510 15.500 V 10.110 C 28.510 10.049 28.461 10.000 28.400 10.000 H 15.900 M 10.400 10.000 H 15.900 M 176.400 10.000 H 155.400 C 155.339 10.000 155.290 10.049 155.290 10.110 V 15.500 C 155.290 15.610 155.400 15.500 155.290 15.500 H 144.510 C 144.400 15.500 144.510 15.610 144.510 15.500 V 10.110 C 144.510 10.049 144.461 10.000 144.400 10.000 H 133.400 C 133.339 10.000 133.290 10.049 133.290 10.110 V 15.500 C 133.290 15.610 133.400 15.500 133.290 15.500 H 122.510 C 122.400 15.500 122.510 15.610 122.510 15.500 V 10.110 C 122.510 10.049 122.461 10.000 122.400 10.000 H 101.400 M 95.900 10.000 H 101.400 M 251.900 10.000 H 233.400 C 233.339 10.000 233.290 10.049 233.290 10.110 V 15.500 C 233.290 15.610 233.400 15.500 233.290 15.500 H 222.510 C 222.400 15.500 222.510 15.610 222.510 15.500 V 10.110 C 222.510 10.049 222.461 10.000 222.400 10.000 H 211.400 C 211.339 10.000 211.290 10.049 211.290 10.110 V 15.500 C 211.290 15.610 211.400 15.500 211.290 15.500 H 200.510 C 200.400 15.500 200.510 15.610 200.510 15.500 V 10.110 C 200.510 10.049 200.461 10.000 200.400 10.000 H 181.900 M 176.400 10.000 H 181.900 M 305.400 10.000 H 286.900 C 286.839 10.000 286.790 10.049 286.790 10.110 V 15.500 C 286.790 15.610 286.900 15.500 286.790 15.500 H 276.010 C 275.900 15.500 276.010 15.610 276.010 15.500 V 10.110 C 276.010 10.049 275.961 10.000 275.900 10.000 H 257.400 M 251.900 10.000 H 257.400 M 305.400 10.000 H 310.900 M 10.290 166.110 V 171.860 C 10.290 171.921 10.339 171.970 10.400 171.970 H 15.790 C 15.900 171.970 15.790 171.860 15.790 171.970 V 182.750 C 15.790 182.860 15.900 182.750 15.790 182.750 H 10.400 C 10.339 182.750 10.290 182.799 10.290 182.860 V 188.610 M 10.290 160.610 V 166.110 M 10.290 188.610 V 194.110 M 10.290 15.610 V 27.610 C 10.290 27.671 10.339 27.720 10.400 27.720 H 15.790 C 15.900 27.720 15.790 27.610 15.790 27.720 V 38.500 C 15.790 38.610 15.900 38.500 15.790 38.500 H 10.400 C 10.339 38.500 10.290 38.549 10.290 38.610 V 49.610 C 10.290 49.671 10.339 49.720 10.400 49.720 H 15.790 C 15.900 49.720 15.790 49.610 15.790 49.720 V 60.500 C 15.790 60.610 15.900 60.500 15.790 60.500 H 10.400 C 10.339 60.500 10.290 60.549 10.290 60.610 V 71.610 C 10.290 71.671 10.339 71.720 10.400 71.720 H 15.790 C 15.900 71.720 15.790 71.610 15.790 71.720 V 82.500 C 15.790 82.610 15.900 82.500 15.790 82.500 H 10.400 C 10.339 82.500 10.290 82.549 10.290 82.610 V 93.610 C 10.290 93.671 10.339 93.720 10.400 93.720 H 15.790 C 15.900 93.720 15.790 93.610 15.790 93.720 V 104.500 C 15.790 104.610 15.900 104.500 15.790 104.500 H 10.400 C 10.339 104.500 10.290 104.549 10.290 104.610 V 115.610 C 10.290 115.671 10.339 115.720 10.400 115.720 H 15.790 C 15.900 115.720 15.790 115.610 15.790 115.720 V 126.500 C 15.790 126.610 15.900 126.500 15.790 126.500 H 10.400 C 10.339 126.500 10.290 126.549 10.290 126.610 V 137.610 C 10.290 137.671 10.339 137.720 10.400 137.720 H 15.790 C 15.900 137.720 15.790 137.610 15.790 137.720 V 148.500 C 15.790 148.610 15.900 148.500 15.790 148.500 H 10.400 C 10.339 148.500 10.290 148.549 10.290 148.610 V 160.610 M 10.290 10.110 V 15.610" stroke="rgb(0,0,0)" stroke-width="0.22" />
  <path d="M 101.290 177.360 V 182.750 C 101.290 182.860 101.400 182.750 101.290 182.750 H 96.010 C 95.900 182.750 96.010 182.860 96.010 182.750 V 171.970 C 96.010 171.860 95.900 171.970 96.010 171.970 H 101.290 C 101.400 171.970 101.290 171.860 101.290 171.970 V 177.360 Z" stroke="rgb(0,0,255)" stroke-width="0.22" />
  <path d="M 101.290 143.110 V 148.500 C 101.290 148.610 101.400 148.500 101.290 148.500 H 96.010 C 95.900 148.500 96.010 148.610 96.010 148.500 V 137.720 C 96.010 137.610 95.900 137.720 96.010 137.720 H 101.290 C 101.400 137.720 101.290 137.610 101.290 137.720 V 143.110 Z" stroke="rgb(0,0,255)" stroke-width="0.22" />
  <path d="M 101.290 121.110 V 126.500 C 101.290 126.610 101.400 126.500 101.290 126.500 H 96.010 C 95.900 126.500 96.010 126.610 96.010 126.500 V 115.720 C 96.010 115.610 95.900 115.720 96.010 115.720 H 101.290 C 101.400 115.720 101.290 115.610 101.290 115.720 V 121.110 Z" stroke="rgb(0,0,255)" stroke-width="0.22" />
  <path d="M 101.290 99.110 V 104.500 C 101.290 104.610 101.400 104.500 101.290 104.500 H 96.010 C 95.900 104.500 96.010 104.610 96.010 104.500 V 93.720 C 96.010 93.610 95.900 93.720 96.010 93.720 H 101.290 C 101.400 93.720 101.290 93.610 101.290 93.720 V 99.110 Z" stroke="rgb(0,0,255)" stroke-width="0.22" />
  <path d="M 101.290 77.110 V 82.500 C 101.290 82.610 101.400 82.500 101.290 82.500 H 96.010 C 95.900 82.500 96.010 82.610 96.010 82.500 V 71.720 C 96.010 71.610 95.900 71.720 96.010 71.720 H 101.290 C 101.400 71.720 101.290 71.610 101.290 71.720 V 77.110 Z" stroke="rgb(0,0,255)" stroke-width="0.22" />
  <path d="M 101.290 55.110 V 60.500 C 101.290 60.610 101.400 60.500 101.290 60.500 H 96.010 C 95.900 60.500 96.010 60.610 96.010 60.500 V 49.720 C 96.010 49.610 95.900 49.720 96.010 49.720 H 101.290 C 101.400 49.720 101.290 49.610 101.290 49.720 V 55.110 Z" stroke="rgb(0,0,255)" stroke-width="0.22" />
  <path d="M 101.290 33.110 V 38.500 C 101.290 38.610 101.400 38.500 101.290 38.500 H 96.010 C 95.900 38.500 96.010 38.610 96.010 38.500 V 27.720 C 96.010 27.610 95.900 27.720 96.010 27.720 H 101.290 C 101.400 27.720 101.290 27.610 101.290 27.720 V 33.110 Z" stroke="rgb(0,0,255)" stroke-width="0.22" />
  <path d="M 181.790 177.360 V 182.750 C 181.790 182.860 181.900 182.750 181.790 182.750 H 176.510 C 176.400 182.750 176.510 182.860 176.510 182.750 V 171.970 C 176.510 171.860 176.400 171.970 176.510 171.970 H 181.790 C 181.900 171.970 181.790 171.860 181.790 171.970 V 177.360 Z" stroke="rgb(0,0,255)" stroke-width="0.22" />
  <path d="M 181.790 143.110 V 148.500 C 181.790 148.610 181.900 148.500 181.790 148.500 H 176.510 C 176.400 148.500 176.510 148.610 176.510 148.500 V 137.720 C 176.510 137.610 176.400 137.720 176.510 137.720 H 181.790 C 181.900 137.720 181.790 137.610 181.790 137.720 V 143.110 Z" stroke="rgb(0,0,255)" stroke-width="0.22" />
  <path d="M 181.790 121.110 V 126.500 C 181.790 126.610 181.900 126.500 181.790 126.500 H 176.510 C 176.400 126.500 176.510 126.610 176.510 126.500 V 115.720 C 176.510 115.610 176.400 115.720 176.510 115.720 H 181.790 C 181.900 115.720 181.790 115.610 181.790 115.720 V 121.110 Z" stroke="rgb(0,0,255)" stroke-width="0.22" />
  <path d="M 181.790 99.110 V 104.500 C 181.790 104.610 181.900 104.500 181.790 104.500 H 176.510 C 176.400 104.500 176.510 104.610 176.510 104.500 V 93.720 C 176.510 93.610 176.400 93.720 176.510 93.720 H 181.790 C 181.900 93.720 181.790 93.610 181.790 93.720 V 99.110 Z" stroke="rgb(0,0,255)" stroke-width="0.22" />
  <path d="M 181.790 77.110 V 82.500 C 181.790 82.610 181.900 82.500 181.790 82.500 H 176.510 C 176.400 82.500 176.510 82.610 176.510 82.500 V 71.720 C 176.510 71.610 176.400 71.720 176.510 71.720 H 181.790 C 181.900 71.720 181.790 71.610 181.790 71.720 V 77.110 Z" stroke="rgb(0,0,255)" stroke-width="0.22" />
  <path d="M 181.790 55.110 V 60.500 C 181.790 60.610 181.900 60.500 181.790 60.500 H 176.510 C 176.400 60.500 176.510 60.610 176.510 60.500 V 49.720 C 176.510 49.610 176.400 49.720 176.510 49.720 H 181.790 C 181.900 49.720 181.790 49.610 181.790 49.720 V 55.110 Z" stroke="rgb(0,0,255)" stroke-width="0.22" />
  <path d="M 181.790 33.110 V 38.500 C 181.790 38.610 181.900 38.500 181.790 38.500 H 176.510 C 176.400 38.500 176.510 38.610 176.510 38.500 V 27.720 C 176.510 27.610 176.400 27.720 176.510 27.720 H 181.790 C 181.900 27.720 181.790 27.610 181.790 27.720 V 33.110 Z" stroke="rgb(0,0,255)" stroke-width="0.22" />
  <path d="M 257.290 177.360 V 182.750 C 257.290 182.860 257.400 182.750 257.290 182.750 H 252.010 C 251.900 182.750 252.010 182.860 252.010 182.750 V 171.970 C 252.010 171.860 251.900 171.970 252.010 171.970 H 257.290 C 257.400 171.970 257.290 171.860 257.290 171.970 V 177.360 Z" stroke="rgb(0,0,255)" stroke-width="0.22" />
  <path d="M 257.290 143.110 V 148.500 C 257.290 148.610 257.400 148.500 257.290 148.500 H 252.010 C 251.900 148.500 252.010 148.610 252.010 148.500 V 137.720 C 252.010 137.610 251.900 137.720 252.010 137.720 H 257.290 C 257.400 137.720 257.290 137.610 257.290 137.720 V 143.110 Z" stroke="rgb(0,0,255)" stroke-width="0.22" />
  <path d="M 257.290 121.110 V 126.500 C 257.290 126.610 257.400 126.500 257.290 126.500 H 252.010 C 251.900 126.500 252.010 126.610 252.010 126.500 V 115.720 C 252.010 115.610 251.900 115.720 252.010 115.720 H 257.290 C 257.400 115.720 257.290 115.610 257.290 115.720 V 121.110 Z" stroke="rgb(0,0,255)" stroke-width="0.22" />
  <path d="M 257.290 99.110 V 104.500 C 257.290 104.610 257.400 104.500 257.290 104.500 H 252.010 C 251.900 104.500 252.010 104.610 252.010 104.500 V 93.720 C 252.010 93.610 251.900 93.720 252.010 93.720 H 257.290 C 257.400 93.720 257.290 93.610 257.290 93.720 V 99.110 Z" stroke="rgb(0,0,255)" stroke-width="0.22" />
  <path d="M 257.290 77.110 V 82.500 C 257.290 82.610 257.400 82.500 257.290 82.500 H 252.010 C 251.900 82.500 252.010 82.610 252.010 82.500 V 71.720 C 252.010 71.610 251.900 71.720 252.010 71.720 H 257.290 C 257.400 71.720 257.290 71.610 257.290 71.720 V 77.110 Z" stroke="rgb(0,0,255)" stroke-width="0.22" />
  <path d="M 257.290 55.110 V 60.500 C 257.290 60.610 257.400 60.500 257.290 60.500 H 252.010 C 251.900 60.500 252.010 60.610 252.010 60.500 V 49.720 C 252.010 49.610 251.900 49.720 252.010 49.720 H 257.290 C 257.400 49.720 257.290 49.610 257.290 49.720 V 55.110 Z" stroke="rgb(0,0,255)" stroke-width="0.22" />
  <path d="M 257.290 33.110 V 38.500 C 257.290 38.610 257.400 38.500 257.290 38.500 H 252.010 C 251.900 38.500 252.010 38.610 252.010 38.500 V 27.720 C 252.010 27.610 251.900 27.720 252.010 27.720 H 257.290 C 257.400 27.720 257.290 27.610 257.290 27.720 V 33.110 Z" stroke="rgb(0,0,255)" stroke-width="0.22" />
  <path d="M 311.010 188.610 V 182.860 C 311.010 182.799 310.961 182.750 310.900 182.750 H 305.510 C 305.400 182.750 305.510 182.860 305.510 182.750 V 171.970 C 305.510 171.860 305.400 171.970 305.510 171.970 H 310.900 C 310.961 171.970 311.010 171.921 311.010 171.860 V 166.110 V 160.610 M 311.010 194.110 V 188.610 M 311.010 160.610 V 148.610 C 311.010 148.549 310.961 148.500 310.900 148.500 H 305.510 C 305.400 148.500 305.510 148.610 305.510 148.500 V 137.720 C 305.510 137.610 305.400 137.720 305.510 137.720 H 310.900 C 310.961 137.720 311.010 137.671 311.010 137.610 V 126.610 C 311.010 126.549 310.961 126.500 310.900 126.500 H 305.510 C 305.400 126.500 305.510 126.610 305.510 126.500 V 115.720 C 305.510 115.610 305.400 115.720 305.510 115.720 H 310.900 C 310.961 115.720 311.010 115.671 311.010 115.610 V 104.610 C 311.010 104.549 310.961 104.500 310.900 104.500 H 305.510 C 305.400 104.500 305.510 104.610 305.510 104.500 V 93.720 C 305.510 93.610 305.400 93.720 305.510 93.720 H 310.900 C 310.961 93.720 311.010 93.671 311.010 93.610 V 82.610 C 311.010 82.549 310.961 82.500 310.900 82.500 H 305.510 C 305.400 82.500 305.510 82.610 305.510 82.500 V 71.720 C 305.510 71.610 305.400 71.720 305.510 71.720 H 310.900 C 310.961 71.720 311.010 71.671 311.010 71.610 V 60.610 C 311.010 60.549 310.961 60.500 310.900 60.500 H 305.510 C 305.400 60.500 305.510 60.610 305.510 60.500 V 49.720 C 305.510 49.610 305.400 49.720 305.510 49.720 H 310.900 C 310.961 49.720 311.010 49.671 311.010 49.610 V 38.610 C 311.010 38.549 310.961 38.500 310.900 38.500 H 305.510 C 305.400 38.500 305.510 38.610 305.510 38.500 V 27.720 C 305.510 27.610 305.400 27.720 305.510 27.720 H 310.900 C 310.961 27.720 311.010 27.671 311.010 27.610 V 15.610 V 10.110" stroke="rgb(0,0,0)" stroke-width="0.22" />
</g>
</svg>